<svg width="951" height="1342" viewBox="0 0 951 1342" fill="none" xmlns="http://www.w3.org/2000/svg">
<path d="M338.696 449.618C351.567 588.187 405.679 720.583 482.735 822.616C559.793 924.651 659.764 996.288 764.384 1013.45C869.004 1030.61 958.555 990.062 1018.75 910.542C1078.94 831.023 1109.75 712.557 1096.88 573.988C1084.01 435.419 1029.9 303.023 952.84 200.99C875.783 98.9557 775.812 27.3184 671.192 10.1569C566.572 -7.00472 477.021 33.5438 416.828 113.064C356.635 192.583 325.824 311.049 338.696 449.618Z" stroke="url(#paint0_linear_14_3)"/>
<path d="M423.372 498.819C435.323 627.484 485.568 750.415 557.115 845.153C628.662 939.892 721.482 1006.4 818.615 1022.34C915.747 1038.27 998.892 1000.62 1054.78 926.789C1110.67 852.956 1139.28 742.959 1127.33 614.294C1115.38 485.629 1065.13 362.698 993.585 267.96C922.038 173.221 829.218 106.71 732.085 90.777C634.953 74.8437 551.808 112.49 495.918 186.324C440.029 260.158 411.421 370.154 423.372 498.819Z" stroke="url(#paint1_linear_14_3)"/>
<path d="M508.05 548.043C519.081 666.803 565.458 780.27 631.495 867.713C697.533 955.156 783.201 1016.54 872.846 1031.25C962.491 1045.95 1039.23 1011.21 1090.82 943.059C1142.4 874.911 1168.81 773.383 1157.78 654.622C1146.75 535.862 1100.37 422.395 1034.33 334.953C968.293 247.51 882.625 186.125 792.98 171.42C703.335 156.715 626.596 191.458 575.01 259.607C523.425 327.755 497.019 429.283 508.05 548.043Z" stroke="url(#paint2_linear_14_3)"/>
<path d="M592.721 597.247C602.832 706.103 645.34 810.106 705.868 890.253C766.397 970.4 844.913 1026.66 927.071 1040.14C1009.23 1053.61 1079.56 1021.77 1126.84 959.308C1174.13 896.846 1198.33 803.787 1188.22 694.931C1178.11 586.075 1135.6 482.073 1075.07 401.926C1014.54 321.778 936.026 265.52 853.868 252.043C771.71 238.566 701.377 270.407 654.095 332.87C606.814 395.332 582.609 488.391 592.721 597.247Z" stroke="url(#paint3_linear_14_3)"/>
<path d="M677.392 646.449C686.583 745.401 725.224 839.938 780.242 912.79C835.261 985.642 906.626 1036.77 981.297 1049.02C1055.97 1061.27 1119.89 1032.33 1162.87 975.555C1205.85 918.779 1227.85 834.189 1218.66 735.237C1209.47 636.285 1170.83 541.747 1115.81 468.896C1060.79 396.044 989.427 344.913 914.757 332.664C840.086 320.415 776.159 349.353 733.181 406.13C690.203 462.907 668.201 547.497 677.392 646.449Z" stroke="url(#paint4_linear_14_3)"/>
<path d="M762.075 695.669C770.346 784.716 805.119 869.789 854.628 935.345C904.137 1000.9 968.351 1046.91 1035.53 1057.93C1102.72 1068.95 1160.24 1042.91 1198.91 991.821C1237.59 940.73 1257.39 864.609 1249.11 775.561C1240.84 686.514 1206.07 601.441 1156.56 535.885C1107.05 470.328 1042.84 424.323 975.656 413.303C908.474 402.282 850.952 428.318 812.278 479.409C773.604 530.5 753.804 606.621 762.075 695.669Z" stroke="url(#paint5_linear_14_3)"/>
<path d="M846.746 744.871C854.097 824.014 885.002 899.623 929.001 957.884C973.001 1016.14 1030.06 1057.02 1089.76 1066.82C1149.45 1076.61 1200.57 1053.47 1234.94 1008.07C1269.31 962.664 1286.91 895.012 1279.56 815.868C1272.21 736.725 1241.3 661.117 1197.3 602.856C1153.3 544.595 1096.24 503.717 1036.54 493.924C976.849 484.132 925.733 507.265 891.362 552.671C856.993 598.076 839.394 665.728 846.746 744.871Z" stroke="url(#paint6_linear_14_3)"/>
<path d="M931.423 794.095C937.854 863.333 964.892 929.478 1003.38 980.443C1041.87 1031.41 1091.78 1067.16 1143.99 1075.72C1196.2 1084.29 1240.91 1064.06 1270.97 1024.34C1301.04 984.619 1316.44 925.435 1310 856.196C1303.57 786.958 1276.54 720.813 1238.05 669.848C1199.56 618.883 1149.65 583.131 1097.44 574.567C1045.23 566.003 1000.52 586.233 970.454 625.953C940.388 665.672 924.991 724.856 931.423 794.095Z" stroke="url(#paint7_linear_14_3)"/>
<g filter="url(#filter0_f_14_3)">
<path d="M619.818 505.051C624.617 259.006 749.52 61.9082 898.796 64.8197C1048.07 67.7312 1165.2 269.55 1160.4 515.594C1155.6 761.638 1030.69 958.736 881.418 955.825C732.141 952.913 615.019 751.095 619.818 505.051Z" fill="url(#paint8_linear_14_3)"/>
</g>
<path d="M770.48 418.429C777.692 437.919 787.086 454.481 796.428 465.503C801.1 471.016 805.74 475.121 810.068 477.522C814.397 479.925 818.353 480.59 821.713 479.346C825.074 478.103 827.643 475.023 829.366 470.381C831.088 465.741 831.938 459.603 831.896 452.377C831.811 437.929 828.16 419.242 820.948 399.752C813.735 380.262 804.341 363.7 794.999 352.678C790.327 347.165 785.687 343.059 781.359 340.658C777.03 338.256 773.074 337.591 769.714 338.834C766.353 340.078 763.784 343.158 762.061 347.8C760.339 352.44 759.489 358.577 759.532 365.803C759.616 380.251 763.267 398.938 770.48 418.429Z" stroke="url(#paint9_linear_14_3)"/>
<path d="M786.073 383.038C767.189 390.026 751.21 399.308 740.639 408.647C735.353 413.318 731.44 417.985 729.184 422.368C726.928 426.75 726.352 430.797 727.642 434.282C728.932 437.768 732.004 440.465 736.568 442.323C741.134 444.181 747.143 445.176 754.196 445.28C768.3 445.488 786.471 442.132 805.356 435.143C824.24 428.155 840.219 418.873 850.789 409.534C856.076 404.863 859.989 400.196 862.245 395.813C864.501 391.432 865.076 387.384 863.786 383.899C862.497 380.414 859.425 377.716 854.86 375.858C850.295 374 844.286 373.005 837.233 372.901C823.129 372.693 804.957 376.049 786.073 383.038Z" stroke="url(#paint10_linear_14_3)"/>
<path d="M771.056 397.264C762.801 415.986 758.142 434.26 757.27 448.66C756.833 455.862 757.346 462.068 758.811 466.868C760.277 471.671 762.676 475.007 765.971 476.585C769.261 478.16 773.241 477.885 777.683 475.921C782.125 473.956 786.974 470.323 791.932 465.289C801.846 455.223 812.116 439.639 820.371 420.916C828.626 402.194 833.285 383.919 834.157 369.52C834.593 362.318 834.081 356.111 832.615 351.311C831.149 346.509 828.751 343.173 825.456 341.595C822.166 340.019 818.186 340.295 813.744 342.259C809.302 344.224 804.453 347.856 799.495 352.891C789.581 362.956 779.311 378.541 771.056 397.264Z" stroke="url(#paint11_linear_14_3)"/>
<path d="M862.229 440.962C863.703 437.62 863.352 433.526 861.338 428.926C859.326 424.328 855.675 419.283 850.655 414.101C840.619 403.738 825.186 392.899 806.732 384.061C788.277 375.223 770.336 370.078 756.258 368.891C749.217 368.298 743.172 368.696 738.52 370.097C733.87 371.497 730.67 373.879 729.198 377.217C727.724 380.56 728.075 384.654 730.088 389.254C732.101 393.851 735.752 398.896 740.771 404.079C750.808 414.442 766.241 425.281 784.695 434.119C803.149 442.957 821.091 448.101 835.169 449.288C842.21 449.882 848.255 449.483 852.906 448.082C857.556 446.682 860.757 444.3 862.229 440.962Z" stroke="url(#paint12_linear_14_3)"/>
<defs>
<filter id="filter0_f_14_3" x="95.6753" y="-459.212" width="1588.86" height="1939.07" filterUnits="userSpaceOnUse" color-interpolation-filters="sRGB">
<feFlood flood-opacity="0" result="BackgroundImageFix"/>
<feBlend mode="normal" in="SourceGraphic" in2="BackgroundImageFix" result="shape"/>
<feGaussianBlur stdDeviation="262" result="effect1_foregroundBlur_14_3"/>
</filter>
<linearGradient id="paint0_linear_14_3" x1="671.146" y1="9.66807" x2="513.169" y2="972.722" gradientUnits="userSpaceOnUse">
<stop stop-color="#331A5E" stop-opacity="0.18"/>
<stop offset="1" stop-color="#341A60"/>
</linearGradient>
<linearGradient id="paint1_linear_14_3" x1="732.04" y1="90.2882" x2="585.347" y2="984.553" gradientUnits="userSpaceOnUse">
<stop stop-color="#331A5E" stop-opacity="0.18"/>
<stop offset="1" stop-color="#341A60"/>
</linearGradient>
<linearGradient id="paint2_linear_14_3" x1="792.935" y1="170.931" x2="657.526" y2="996.406" gradientUnits="userSpaceOnUse">
<stop stop-color="#331A5E" stop-opacity="0.18"/>
<stop offset="1" stop-color="#341A60"/>
</linearGradient>
<linearGradient id="paint3_linear_14_3" x1="853.823" y1="251.554" x2="729.698" y2="1008.24" gradientUnits="userSpaceOnUse">
<stop stop-color="#331A5E" stop-opacity="0.18"/>
<stop offset="1" stop-color="#341A60"/>
</linearGradient>
<linearGradient id="paint4_linear_14_3" x1="914.711" y1="332.175" x2="801.871" y2="1020.07" gradientUnits="userSpaceOnUse">
<stop stop-color="#331A5E" stop-opacity="0.18"/>
<stop offset="1" stop-color="#341A60"/>
</linearGradient>
<linearGradient id="paint5_linear_14_3" x1="975.611" y1="412.814" x2="874.055" y2="1031.92" gradientUnits="userSpaceOnUse">
<stop stop-color="#331A5E" stop-opacity="0.18"/>
<stop offset="1" stop-color="#341A60"/>
</linearGradient>
<linearGradient id="paint6_linear_14_3" x1="1036.5" y1="493.436" x2="946.226" y2="1043.75" gradientUnits="userSpaceOnUse">
<stop stop-color="#331A5E" stop-opacity="0.18"/>
<stop offset="1" stop-color="#341A60"/>
</linearGradient>
<linearGradient id="paint7_linear_14_3" x1="1097.39" y1="574.078" x2="1018.4" y2="1055.6" gradientUnits="userSpaceOnUse">
<stop stop-color="#331A5E" stop-opacity="0.18"/>
<stop offset="1" stop-color="#341A60"/>
</linearGradient>
<linearGradient id="paint8_linear_14_3" x1="1011.28" y1="1042.32" x2="1038.64" y2="-360.28" gradientUnits="userSpaceOnUse">
<stop offset="0.414828" stop-color="#4B2A93"/>
<stop offset="0.612494" stop-color="#476196"/>
<stop offset="1" stop-color="#580B38"/>
</linearGradient>
<linearGradient id="paint9_linear_14_3" x1="769.54" y1="338.365" x2="821.887" y2="479.815" gradientUnits="userSpaceOnUse">
<stop stop-color="#B08AFF" stop-opacity="0"/>
<stop offset="0.8125" stop-color="#251742"/>
</linearGradient>
<linearGradient id="paint10_linear_14_3" x1="864.255" y1="383.725" x2="727.173" y2="434.456" gradientUnits="userSpaceOnUse">
<stop stop-color="#251742"/>
<stop offset="1" stop-color="#B08AFF" stop-opacity="0"/>
</linearGradient>
<linearGradient id="paint11_linear_14_3" x1="825.672" y1="341.144" x2="761.555" y2="475.024" gradientUnits="userSpaceOnUse">
<stop stop-color="#251742"/>
<stop offset="1" stop-color="#B08AFF" stop-opacity="0"/>
</linearGradient>
<linearGradient id="paint12_linear_14_3" x1="728.74" y1="377.016" x2="864.565" y2="436.903" gradientUnits="userSpaceOnUse">
<stop offset="0.682292" stop-color="#251742"/>
<stop offset="0.90625" stop-color="#B08AFF" stop-opacity="0"/>
</linearGradient>
</defs>
</svg>
