<svg width="57" height="35" viewBox="0 0 57 35" fill="none" xmlns="http://www.w3.org/2000/svg">
<path d="M12.0997 7.13933C21.2928 -1.8635 36.1944 -1.8635 45.3994 7.13933L46.5055 8.22157C46.9693 8.67349 46.9693 9.39895 46.5055 9.85088L42.7236 13.5614C42.4976 13.7874 42.117 13.7874 41.8911 13.5614L40.3688 12.0748C33.9586 5.79544 23.5524 5.79544 17.1422 12.0748L15.5129 13.6685C15.2869 13.8944 14.9064 13.8944 14.6804 13.6685L10.8866 9.95791C10.4228 9.50599 10.4228 8.78053 10.8866 8.3286L12.0997 7.13933ZM53.2249 14.7983L56.5905 18.0926C57.0543 18.5445 57.0543 19.2699 56.5905 19.7219L41.4035 34.5997C40.9396 35.0516 40.2023 35.0516 39.7385 34.5997L28.9517 24.0389C28.8328 23.9319 28.6544 23.9319 28.5355 24.0389L17.7606 34.5997C17.2968 35.0516 16.5595 35.0516 16.0956 34.5997L0.896692 19.7338C0.432874 19.2818 0.432874 18.5564 0.896692 18.1045L4.26234 14.8102C4.72616 14.3582 5.46351 14.3582 5.92733 14.8102L16.7141 25.3709C16.833 25.478 17.0114 25.478 17.1303 25.3709L27.9052 14.8102C28.369 14.3582 29.1063 14.3582 29.5702 14.8102L40.3569 25.3709C40.4758 25.478 40.6542 25.478 40.7731 25.3709L51.5599 14.8102C52.0118 14.3463 52.761 14.3463 53.2249 14.7983Z" fill="#3A99FB"/>
</svg>
