<svg width="33" height="33" viewBox="0 0 33 33" fill="none" xmlns="http://www.w3.org/2000/svg">
<path fill-rule="evenodd" clip-rule="evenodd" d="M1.57203 0.0360781C0.977996 0.192252 0.456419 0.620359 0.184921 1.17443C-0.0394142 1.63217 -0.0417369 2.45055 0.179953 2.91758C0.303443 3.17777 1.6168 4.52691 6.95219 9.87408L13.5712 16.5078L6.95219 23.1415C-0.240716 30.3503 0.072979 30.0036 0.00691092 30.8171C-0.0588991 31.6281 0.348607 32.3649 1.08813 32.772C1.47854 32.9869 1.54538 33.0026 2.05593 32.9997C2.49253 32.9973 2.67015 32.9657 2.92694 32.845C3.1887 32.722 4.50019 31.4439 9.87893 26.0701L16.5083 19.4468L23.1377 26.0701C28.5165 31.4439 29.8279 32.722 30.0897 32.845C30.3473 32.9662 30.5227 32.9971 30.9607 32.9987C31.4636 33.0006 31.5429 32.9826 31.9157 32.7814C32.3685 32.5371 32.564 32.3345 32.8166 31.848C33.0536 31.3917 33.0621 30.5818 32.835 30.0979C32.712 29.836 31.4348 28.5237 26.0645 23.1415L19.4454 16.5078L26.0645 9.87408C31.4348 4.49185 32.712 3.17951 32.835 2.91758C32.9561 2.65979 32.987 2.48431 32.9886 2.046C32.9905 1.54281 32.9724 1.4634 32.7715 1.09043C32.5273 0.637339 32.3249 0.441718 31.8386 0.188895C31.3826 -0.0482391 30.5732 -0.0567612 30.0897 0.170495C29.8279 0.293549 28.5165 1.57161 23.1377 6.94544L16.5083 13.5687L9.87893 6.94544C4.47406 1.54552 3.19128 0.29568 2.93423 0.178888C2.59312 0.023876 1.89611 -0.049143 1.57203 0.0360781Z" fill="#DDDDDD"/>
</svg>
