<svg width="61" height="32" viewBox="0 0 61 32" fill="none" xmlns="http://www.w3.org/2000/svg">
<mask id="path-1-inside-1_772_329" fill="white">
<path fill-rule="evenodd" clip-rule="evenodd" d="M13.7289 0.128017C12.5155 0.312187 10.6381 0.755413 10.1765 0.966729C9.36288 1.3392 8.65116 2.13485 7.09893 4.40753C6.57146 5.17978 5.68766 6.43496 5.135 7.19684C2.84594 10.352 1.9325 12.0253 1.08451 14.6163C0.587691 16.1344 0 18.7096 0 19.3684C0 19.9043 0.237214 20.365 0.797056 20.9161C2.33844 22.4338 4.99982 23.2753 9.18097 23.5668C11.9191 23.7578 13.98 23.388 16.6739 22.2222C17.1778 22.0042 17.6193 21.7984 17.6549 21.7651C17.6905 21.7317 17.4852 21.314 17.1987 20.8367C16.2995 19.3393 15.6611 17.7026 15.3577 16.1166C15.2197 15.3953 15.1991 15.0579 15.2289 14.0061C15.2484 13.3175 15.2787 12.7022 15.2962 12.6389C15.4131 12.2152 12.8123 12.0317 11.7474 12.3884C10.7223 12.7318 9.75563 13.3016 8.95226 14.0359C8.71434 14.2533 8.50349 14.4312 8.48376 14.4312C8.46402 14.4312 8.47838 14.2469 8.51566 14.0217C8.55303 13.7965 8.61411 12.875 8.65139 11.974L8.71926 10.3359L9.08565 9.16584C9.66273 7.32305 10.7263 4.78297 11.0246 4.53546C11.0821 4.48772 11.6157 4.44919 12.3094 4.44264L13.496 4.43132L13.7748 4.6761L14.0535 4.92081L15.1587 4.87034C16.0688 4.82884 16.3349 4.78835 16.6648 4.64155C16.8852 4.5435 17.2038 4.43983 17.3728 4.41128C17.5418 4.38273 17.7692 4.30004 17.8781 4.22742C17.987 4.15488 18.2183 4.00042 18.392 3.88427C18.7794 3.62506 18.9552 3.38457 18.9552 3.11374C18.9552 2.90352 17.3117 0.413281 16.9905 0.136753C16.8536 0.0188874 16.6702 0.00125758 15.6509 0.00788801C15.0014 0.0121003 14.1365 0.0661585 13.7289 0.128017ZM44.0095 0.136753C43.6883 0.413281 42.0448 2.90352 42.0448 3.11374C42.0448 3.38457 42.2206 3.62506 42.608 3.88427C42.7817 4.00042 43.013 4.15488 43.1218 4.22742C43.2308 4.30004 43.4582 4.38273 43.6272 4.41128C43.7962 4.43983 44.1148 4.5435 44.3352 4.64155C44.6651 4.78835 44.9312 4.82884 45.8413 4.87034L46.9465 4.92081L47.2252 4.6761L47.504 4.43132L48.6906 4.44264C49.3843 4.44919 49.9179 4.48772 49.9754 4.53546C50.2736 4.78297 51.3371 7.32258 51.9144 9.16584L52.2809 10.3359L52.349 11.935C52.3864 12.8145 52.4469 13.7359 52.4832 13.9827C52.5196 14.2294 52.5338 14.4312 52.5148 14.4312C52.4959 14.4312 52.2857 14.2533 52.0477 14.0359C51.2444 13.3016 50.2776 12.7318 49.2526 12.3884C48.5111 12.14 46.7638 12.1289 46.101 12.3685C45.8029 12.4763 45.6817 12.5588 45.7038 12.6389C45.7213 12.7022 45.7516 13.3175 45.7711 14.0061C45.8009 15.0579 45.7803 15.3953 45.6423 16.1166C45.3389 17.7026 44.7005 19.3393 43.8013 20.8367C43.5148 21.314 43.3095 21.7317 43.3451 21.7651C43.3807 21.7984 43.8205 22.0035 44.3226 22.2207C47.0122 23.3845 49.0879 23.7573 51.819 23.5668C56.0002 23.2753 58.6616 22.4338 60.2029 20.9161C60.7711 20.3568 61 19.9062 61 19.3471C61 18.6954 60.3924 16.0748 59.8749 14.4942C59.0683 12.0307 58.1203 10.3054 55.865 7.19684C55.3123 6.43496 54.4285 5.17978 53.9011 4.40753C52.7468 2.71755 52.3512 2.20927 51.7283 1.61565C51.1136 1.02983 50.6517 0.826865 49.2024 0.50564C47.4955 0.127237 46.505 0.000244141 45.2611 0.000244141C44.3326 0.000244141 44.1443 0.0207595 44.0095 0.136753ZM21.7634 7.36611C19.1614 7.91691 17.1479 9.9168 16.4851 12.6088C16.2987 13.366 16.2985 15.11 16.4847 15.9913C17.2056 19.4025 19.3946 22.6695 23.0905 25.85C24.3459 26.9303 26.7202 28.6951 28.7624 30.0659L30.4961 31.2297L31.8826 30.3064C39.139 25.4749 42.6771 21.7594 44.1028 17.4734C44.5395 16.1603 44.656 15.4726 44.6511 14.2362C44.6446 12.6237 44.316 11.4992 43.4874 10.2539C41.6682 7.51986 38.2185 6.51359 35.2201 7.84233C33.5741 8.57168 31.8532 10.266 30.766 12.2275C30.6411 12.4527 30.5215 12.6369 30.5 12.6369C30.4785 12.6369 30.3589 12.4527 30.234 12.2275C28.9017 9.82374 26.909 8.09304 24.7666 7.47867C24.0522 7.27375 22.4783 7.21478 21.7634 7.36611ZM24.1441 9.40353C24.399 9.46991 24.8188 9.61913 25.0771 9.73505L25.5467 9.9459L24.8299 10.001C22.0416 10.2156 19.9608 11.9368 19.1442 14.7042C19.0615 14.9847 18.9874 15.5786 18.9593 16.1863L18.9124 17.2004L18.7328 16.6258C18.1404 14.7306 18.2217 13.1115 18.982 11.662C19.4916 10.6904 20.6752 9.75314 21.8024 9.42872C22.4024 9.25602 23.5312 9.24385 24.1441 9.40353Z"/>
</mask>
<path fill-rule="evenodd" clip-rule="evenodd" d="M13.7289 0.128017C12.5155 0.312187 10.6381 0.755413 10.1765 0.966729C9.36288 1.3392 8.65116 2.13485 7.09893 4.40753C6.57146 5.17978 5.68766 6.43496 5.135 7.19684C2.84594 10.352 1.9325 12.0253 1.08451 14.6163C0.587691 16.1344 0 18.7096 0 19.3684C0 19.9043 0.237214 20.365 0.797056 20.9161C2.33844 22.4338 4.99982 23.2753 9.18097 23.5668C11.9191 23.7578 13.98 23.388 16.6739 22.2222C17.1778 22.0042 17.6193 21.7984 17.6549 21.7651C17.6905 21.7317 17.4852 21.314 17.1987 20.8367C16.2995 19.3393 15.6611 17.7026 15.3577 16.1166C15.2197 15.3953 15.1991 15.0579 15.2289 14.0061C15.2484 13.3175 15.2787 12.7022 15.2962 12.6389C15.4131 12.2152 12.8123 12.0317 11.7474 12.3884C10.7223 12.7318 9.75563 13.3016 8.95226 14.0359C8.71434 14.2533 8.50349 14.4312 8.48376 14.4312C8.46402 14.4312 8.47838 14.2469 8.51566 14.0217C8.55303 13.7965 8.61411 12.875 8.65139 11.974L8.71926 10.3359L9.08565 9.16584C9.66273 7.32305 10.7263 4.78297 11.0246 4.53546C11.0821 4.48772 11.6157 4.44919 12.3094 4.44264L13.496 4.43132L13.7748 4.6761L14.0535 4.92081L15.1587 4.87034C16.0688 4.82884 16.3349 4.78835 16.6648 4.64155C16.8852 4.5435 17.2038 4.43983 17.3728 4.41128C17.5418 4.38273 17.7692 4.30004 17.8781 4.22742C17.987 4.15488 18.2183 4.00042 18.392 3.88427C18.7794 3.62506 18.9552 3.38457 18.9552 3.11374C18.9552 2.90352 17.3117 0.413281 16.9905 0.136753C16.8536 0.0188874 16.6702 0.00125758 15.6509 0.00788801C15.0014 0.0121003 14.1365 0.0661585 13.7289 0.128017ZM44.0095 0.136753C43.6883 0.413281 42.0448 2.90352 42.0448 3.11374C42.0448 3.38457 42.2206 3.62506 42.608 3.88427C42.7817 4.00042 43.013 4.15488 43.1218 4.22742C43.2308 4.30004 43.4582 4.38273 43.6272 4.41128C43.7962 4.43983 44.1148 4.5435 44.3352 4.64155C44.6651 4.78835 44.9312 4.82884 45.8413 4.87034L46.9465 4.92081L47.2252 4.6761L47.504 4.43132L48.6906 4.44264C49.3843 4.44919 49.9179 4.48772 49.9754 4.53546C50.2736 4.78297 51.3371 7.32258 51.9144 9.16584L52.2809 10.3359L52.349 11.935C52.3864 12.8145 52.4469 13.7359 52.4832 13.9827C52.5196 14.2294 52.5338 14.4312 52.5148 14.4312C52.4959 14.4312 52.2857 14.2533 52.0477 14.0359C51.2444 13.3016 50.2776 12.7318 49.2526 12.3884C48.5111 12.14 46.7638 12.1289 46.101 12.3685C45.8029 12.4763 45.6817 12.5588 45.7038 12.6389C45.7213 12.7022 45.7516 13.3175 45.7711 14.0061C45.8009 15.0579 45.7803 15.3953 45.6423 16.1166C45.3389 17.7026 44.7005 19.3393 43.8013 20.8367C43.5148 21.314 43.3095 21.7317 43.3451 21.7651C43.3807 21.7984 43.8205 22.0035 44.3226 22.2207C47.0122 23.3845 49.0879 23.7573 51.819 23.5668C56.0002 23.2753 58.6616 22.4338 60.2029 20.9161C60.7711 20.3568 61 19.9062 61 19.3471C61 18.6954 60.3924 16.0748 59.8749 14.4942C59.0683 12.0307 58.1203 10.3054 55.865 7.19684C55.3123 6.43496 54.4285 5.17978 53.9011 4.40753C52.7468 2.71755 52.3512 2.20927 51.7283 1.61565C51.1136 1.02983 50.6517 0.826865 49.2024 0.50564C47.4955 0.127237 46.505 0.000244141 45.2611 0.000244141C44.3326 0.000244141 44.1443 0.0207595 44.0095 0.136753ZM21.7634 7.36611C19.1614 7.91691 17.1479 9.9168 16.4851 12.6088C16.2987 13.366 16.2985 15.11 16.4847 15.9913C17.2056 19.4025 19.3946 22.6695 23.0905 25.85C24.3459 26.9303 26.7202 28.6951 28.7624 30.0659L30.4961 31.2297L31.8826 30.3064C39.139 25.4749 42.6771 21.7594 44.1028 17.4734C44.5395 16.1603 44.656 15.4726 44.6511 14.2362C44.6446 12.6237 44.316 11.4992 43.4874 10.2539C41.6682 7.51986 38.2185 6.51359 35.2201 7.84233C33.5741 8.57168 31.8532 10.266 30.766 12.2275C30.6411 12.4527 30.5215 12.6369 30.5 12.6369C30.4785 12.6369 30.3589 12.4527 30.234 12.2275C28.9017 9.82374 26.909 8.09304 24.7666 7.47867C24.0522 7.27375 22.4783 7.21478 21.7634 7.36611ZM24.1441 9.40353C24.399 9.46991 24.8188 9.61913 25.0771 9.73505L25.5467 9.9459L24.8299 10.001C22.0416 10.2156 19.9608 11.9368 19.1442 14.7042C19.0615 14.9847 18.9874 15.5786 18.9593 16.1863L18.9124 17.2004L18.7328 16.6258C18.1404 14.7306 18.2217 13.1115 18.982 11.662C19.4916 10.6904 20.6752 9.75314 21.8024 9.42872C22.4024 9.25602 23.5312 9.24385 24.1441 9.40353Z" fill="#411A4A" stroke="white" stroke-width="2" mask="url(#path-1-inside-1_772_329)"/>
</svg>
