<svg width="34" height="41" viewBox="0 0 34 41" fill="none" xmlns="http://www.w3.org/2000/svg">
<mask id="path-1-inside-1_815_130" fill="white">
<path fill-rule="evenodd" clip-rule="evenodd" d="M11.1982 0.147104C10.9176 0.289857 10.672 0.614049 9.3932 2.52947C8.57905 3.74887 7.84985 4.84382 7.7728 4.96267L7.63269 5.1788L10.0369 6.38141C11.3591 7.04282 12.4537 7.58402 12.4691 7.58402C12.4846 7.58402 13.1503 6.60321 13.9484 5.40452C15.3446 3.30726 15.3994 3.20991 15.3991 2.82681C15.3986 2.18841 15.2491 2.03239 13.6402 0.991554C12.0062 -0.0655076 11.7739 -0.145836 11.1982 0.147104ZM17.7173 4.36248C17.4981 4.4755 17.1404 4.94764 16.0636 6.54495C15.3079 7.66595 14.6874 8.60999 14.6848 8.64284C14.6799 8.70407 19.4762 11.1299 19.5144 11.0856C19.5261 11.072 20.0835 10.2352 20.7531 9.22593L21.9706 7.39099L21.9371 6.98791C21.9187 6.76627 21.8394 6.48692 21.761 6.36718C21.6824 6.24737 20.9653 5.72879 20.1673 5.21461C18.5593 4.17857 18.2693 4.0777 17.7173 4.36248ZM6.34671 7.61743C6.18141 7.6769 5.98663 7.77465 5.91389 7.8346C5.67131 8.03466 0.0717936 16.5086 0.0168024 16.7588C-0.0130111 16.8943 -0.00206104 17.1328 0.0410207 17.2889C0.0884986 17.4609 1.89218 19.9641 4.62216 23.6465C7.32704 27.2951 9.16812 29.8496 9.23303 30.044C9.33765 30.3573 9.30352 30.5183 8.17277 35.0485C7.13912 39.1896 7.01363 39.7635 7.08429 40.026C7.17381 40.3585 7.49281 40.7015 7.83131 40.8294C7.98557 40.8877 10.9762 40.9144 17.3442 40.9144C26.2309 40.9144 26.6438 40.908 26.9078 40.7665C27.0596 40.685 27.2569 40.5206 27.3462 40.4011C27.5024 40.192 27.5102 40.0451 27.5486 36.5725C27.5855 33.2455 27.6002 32.9423 27.7361 32.718C27.8172 32.5842 28.2403 32.2288 28.6764 31.9283C30.1533 30.9107 31.1108 29.6848 31.6184 28.1621C31.9371 27.2058 32.0232 26.3697 32.024 24.2239L32.0246 22.4401L31.6794 22.7231C31.219 23.1003 30.5316 23.4062 29.9018 23.5141C28.9022 23.6853 28.8089 23.6517 22.5119 20.8522C17.4513 18.6025 16.7104 18.2945 16.3586 18.2945H15.9587L18.5165 23.4097C20.8007 27.9776 21.0743 28.5656 21.0738 28.9049C21.0729 29.5831 20.6093 30.0427 19.9248 30.0435C19.1218 30.0447 19.303 30.3335 16.1355 24.001L13.2813 18.2947L10.5962 18.2946C7.9572 18.2945 7.90532 18.2914 7.56738 18.1127C6.74371 17.6771 6.70966 16.5414 7.50568 16.0561C7.75642 15.9032 7.91747 15.8972 11.8026 15.8952C16.6409 15.8927 16.2491 15.9712 17.0008 14.8534C17.2734 14.4479 17.5297 13.9958 17.5704 13.8486C17.6699 13.4881 17.5373 13.0254 17.259 12.7634C17.0068 12.5259 7.2531 7.62982 6.88695 7.55701C6.75506 7.53071 6.51192 7.55797 6.34671 7.61743ZM24.1916 8.63597C23.861 8.85689 19.5285 15.2705 19.3813 15.7568C19.2646 16.1425 19.3876 16.5821 19.6938 16.8734C19.9969 17.1617 22.4112 18.2146 22.769 18.2146C23.3195 18.2146 23.4854 18.0146 25.7702 14.5965C27.8216 11.5276 27.9483 11.317 27.9483 10.9757C27.9483 10.2988 27.8076 10.145 26.3097 9.18308C25.4349 8.62126 25.2074 8.51048 24.871 8.48243C24.5491 8.45549 24.4169 8.48538 24.1916 8.63597ZM30.5208 12.3809C30.375 12.4143 30.1633 12.5266 30.0503 12.6305C29.7364 12.9191 26.0547 18.4792 25.9938 18.7567C25.9181 19.1017 26.0692 19.5853 26.3284 19.8275C26.45 19.9411 27.1391 20.2941 27.8598 20.612C29.28 21.2385 29.5631 21.2834 30.0195 20.955C30.3259 20.7346 33.9228 15.3259 33.9856 14.9911C34.0223 14.7957 33.9899 14.6062 33.8756 14.3479C33.7311 14.0212 33.6016 13.9089 32.6721 13.3041C31.1923 12.3414 31.0185 12.2668 30.5208 12.3809Z"/>
</mask>
<path fill-rule="evenodd" clip-rule="evenodd" d="M11.1982 0.147104C10.9176 0.289857 10.672 0.614049 9.3932 2.52947C8.57905 3.74887 7.84985 4.84382 7.7728 4.96267L7.63269 5.1788L10.0369 6.38141C11.3591 7.04282 12.4537 7.58402 12.4691 7.58402C12.4846 7.58402 13.1503 6.60321 13.9484 5.40452C15.3446 3.30726 15.3994 3.20991 15.3991 2.82681C15.3986 2.18841 15.2491 2.03239 13.6402 0.991554C12.0062 -0.0655076 11.7739 -0.145836 11.1982 0.147104ZM17.7173 4.36248C17.4981 4.4755 17.1404 4.94764 16.0636 6.54495C15.3079 7.66595 14.6874 8.60999 14.6848 8.64284C14.6799 8.70407 19.4762 11.1299 19.5144 11.0856C19.5261 11.072 20.0835 10.2352 20.7531 9.22593L21.9706 7.39099L21.9371 6.98791C21.9187 6.76627 21.8394 6.48692 21.761 6.36718C21.6824 6.24737 20.9653 5.72879 20.1673 5.21461C18.5593 4.17857 18.2693 4.0777 17.7173 4.36248ZM6.34671 7.61743C6.18141 7.6769 5.98663 7.77465 5.91389 7.8346C5.67131 8.03466 0.0717936 16.5086 0.0168024 16.7588C-0.0130111 16.8943 -0.00206104 17.1328 0.0410207 17.2889C0.0884986 17.4609 1.89218 19.9641 4.62216 23.6465C7.32704 27.2951 9.16812 29.8496 9.23303 30.044C9.33765 30.3573 9.30352 30.5183 8.17277 35.0485C7.13912 39.1896 7.01363 39.7635 7.08429 40.026C7.17381 40.3585 7.49281 40.7015 7.83131 40.8294C7.98557 40.8877 10.9762 40.9144 17.3442 40.9144C26.2309 40.9144 26.6438 40.908 26.9078 40.7665C27.0596 40.685 27.2569 40.5206 27.3462 40.4011C27.5024 40.192 27.5102 40.0451 27.5486 36.5725C27.5855 33.2455 27.6002 32.9423 27.7361 32.718C27.8172 32.5842 28.2403 32.2288 28.6764 31.9283C30.1533 30.9107 31.1108 29.6848 31.6184 28.1621C31.9371 27.2058 32.0232 26.3697 32.024 24.2239L32.0246 22.4401L31.6794 22.7231C31.219 23.1003 30.5316 23.4062 29.9018 23.5141C28.9022 23.6853 28.8089 23.6517 22.5119 20.8522C17.4513 18.6025 16.7104 18.2945 16.3586 18.2945H15.9587L18.5165 23.4097C20.8007 27.9776 21.0743 28.5656 21.0738 28.9049C21.0729 29.5831 20.6093 30.0427 19.9248 30.0435C19.1218 30.0447 19.303 30.3335 16.1355 24.001L13.2813 18.2947L10.5962 18.2946C7.9572 18.2945 7.90532 18.2914 7.56738 18.1127C6.74371 17.6771 6.70966 16.5414 7.50568 16.0561C7.75642 15.9032 7.91747 15.8972 11.8026 15.8952C16.6409 15.8927 16.2491 15.9712 17.0008 14.8534C17.2734 14.4479 17.5297 13.9958 17.5704 13.8486C17.6699 13.4881 17.5373 13.0254 17.259 12.7634C17.0068 12.5259 7.2531 7.62982 6.88695 7.55701C6.75506 7.53071 6.51192 7.55797 6.34671 7.61743ZM24.1916 8.63597C23.861 8.85689 19.5285 15.2705 19.3813 15.7568C19.2646 16.1425 19.3876 16.5821 19.6938 16.8734C19.9969 17.1617 22.4112 18.2146 22.769 18.2146C23.3195 18.2146 23.4854 18.0146 25.7702 14.5965C27.8216 11.5276 27.9483 11.317 27.9483 10.9757C27.9483 10.2988 27.8076 10.145 26.3097 9.18308C25.4349 8.62126 25.2074 8.51048 24.871 8.48243C24.5491 8.45549 24.4169 8.48538 24.1916 8.63597ZM30.5208 12.3809C30.375 12.4143 30.1633 12.5266 30.0503 12.6305C29.7364 12.9191 26.0547 18.4792 25.9938 18.7567C25.9181 19.1017 26.0692 19.5853 26.3284 19.8275C26.45 19.9411 27.1391 20.2941 27.8598 20.612C29.28 21.2385 29.5631 21.2834 30.0195 20.955C30.3259 20.7346 33.9228 15.3259 33.9856 14.9911C34.0223 14.7957 33.9899 14.6062 33.8756 14.3479C33.7311 14.0212 33.6016 13.9089 32.6721 13.3041C31.1923 12.3414 31.0185 12.2668 30.5208 12.3809Z" fill="#411A4A" stroke="white" stroke-width="1.22" mask="url(#path-1-inside-1_815_130)"/>
</svg>
