<svg width="38" height="33" viewBox="0 0 38 33" fill="none" xmlns="http://www.w3.org/2000/svg">
<path d="M2.62318 12.8448C1.79107 10.1637 1.88885 7.80249 2.99918 5.67033C2.99918 5.67033 2.07958 7.37692 2.07958 9.1215C2.07958 11 2.62318 12.8448 2.62318 12.8448ZM2.62318 12.8448L2.86423 13.6217L4.05567 13.469L4.11861 12.0978C4.15594 11.2842 4.25352 10.5424 4.34295 10.2371C5.37159 6.72559 7.95989 4.58336 11.4377 4.31386L12.4 4.23928L12.6041 3.07581L11.9737 2.7907C11.5982 2.62097 11.0023 2.40727 10.6247 2.30819C10.1395 2.18086 9.49443 2.13015 8.885 2.13676C8.27612 2.14336 7.63419 2.20792 7.15653 2.34642C5.49458 2.82822 3.76555 4.19854 2.99918 5.67033C2.99918 5.67033 2.07958 7.37692 2.07958 9.1215C2.07958 11 2.62318 12.8448 2.62318 12.8448ZM7.40112 0.739261C7.80613 0.652899 8.51407 0.619265 9.26702 0.647687C10.0192 0.676081 10.7285 0.763075 11.1364 0.880917C13.8215 1.65649 16.3809 3.86607 18.1112 7.01052C18.1999 7.17171 18.2894 7.32292 18.3636 7.43805C18.3997 7.49393 18.4385 7.55122 18.4757 7.5994C18.4928 7.62153 18.5211 7.65685 18.5566 7.69206C18.5735 7.70873 18.6068 7.74039 18.6533 7.77194L18.6545 7.77273C18.6822 7.79159 18.8123 7.87996 19.0025 7.87996C19.1928 7.87996 19.3228 7.7916 19.3506 7.77273L19.3518 7.77193C19.3982 7.74039 19.4316 7.70872 19.4484 7.69206C19.484 7.65685 19.5122 7.62153 19.5293 7.5994C19.5666 7.55122 19.6054 7.49393 19.6414 7.43805C19.7157 7.32292 19.805 7.17182 19.8938 7.01063C21.3057 4.44492 23.5269 2.26341 25.5876 1.34368C29.3383 -0.33052 33.6499 0.933896 35.9289 4.38388C36.9707 5.96085 37.3819 7.36342 37.3902 9.43519C37.3965 11.034 37.253 11.8986 36.6848 13.619C34.838 19.2119 30.2368 24.1396 20.5191 30.6569L18.9987 31.6767L17.0114 30.333C14.2813 28.4872 11.1153 26.1158 9.45495 24.6765C4.55517 20.4294 1.71566 16.1207 0.784242 11.6809C0.671714 11.1446 0.609761 10.305 0.609863 9.4563C0.609967 8.602 0.673041 7.81585 0.780322 7.37692C1.61793 3.9499 4.1508 1.43228 7.40112 0.739261Z" fill="#411A4A"/>
<path d="M2.62318 12.8448C1.79107 10.1637 1.88885 7.80249 2.99918 5.67033M2.62318 12.8448L2.86423 13.6217L4.05567 13.469L4.11861 12.0978C4.15594 11.2842 4.25352 10.5424 4.34295 10.2371C5.37159 6.72559 7.95989 4.58336 11.4377 4.31386M2.62318 12.8448C2.62318 12.8448 2.07958 11 2.07958 9.1215C2.07958 7.37692 2.99918 5.67033 2.99918 5.67033M2.99918 5.67033C3.76555 4.19854 5.49458 2.82822 7.15653 2.34642C7.63419 2.20792 8.27612 2.14336 8.885 2.13676C9.49443 2.13015 10.1395 2.18086 10.6247 2.30819C11.0023 2.40727 11.5982 2.62097 11.9737 2.7907L12.6041 3.07581L12.4 4.23928L11.4377 4.31386M11.4377 4.31386L11.4034 3.87188M18.5633 6.8551L18.5646 6.85348M7.40112 0.739261C7.80613 0.652899 8.51407 0.619265 9.26702 0.647687C10.0192 0.676081 10.7285 0.763075 11.1364 0.880917C13.8215 1.65649 16.3809 3.86607 18.1112 7.01052C18.1999 7.17171 18.2894 7.32292 18.3636 7.43805C18.3997 7.49393 18.4385 7.55122 18.4757 7.5994C18.4928 7.62153 18.5211 7.65685 18.5566 7.69206C18.5735 7.70873 18.6068 7.74039 18.6533 7.77194L18.6545 7.77273C18.6822 7.79159 18.8123 7.87996 19.0025 7.87996C19.1928 7.87996 19.3228 7.7916 19.3506 7.77273L19.3518 7.77193C19.3982 7.74039 19.4316 7.70872 19.4484 7.69206C19.484 7.65685 19.5122 7.62153 19.5293 7.5994C19.5666 7.55122 19.6054 7.49393 19.6414 7.43805C19.7157 7.32292 19.805 7.17182 19.8938 7.01063C21.3057 4.44492 23.5269 2.26341 25.5876 1.34368C29.3383 -0.33052 33.6499 0.933896 35.9289 4.38388C36.9707 5.96085 37.3819 7.36342 37.3902 9.43519C37.3965 11.034 37.253 11.8986 36.6848 13.619C34.838 19.2119 30.2368 24.1396 20.5191 30.6569L18.9987 31.6767L17.0114 30.333C14.2813 28.4872 11.1153 26.1158 9.45495 24.6765C4.55517 20.4294 1.71566 16.1207 0.784242 11.6809C0.671714 11.1446 0.609761 10.305 0.609863 9.4563C0.609967 8.602 0.673041 7.81585 0.780322 7.37692C1.61793 3.9499 4.1508 1.43228 7.40112 0.739261Z" stroke="white" stroke-width="1.21947"/>
</svg>
