<svg width="42" height="41" viewBox="0 0 42 41" fill="none" xmlns="http://www.w3.org/2000/svg">
<mask id="path-1-inside-1_772_325" fill="white">
<path fill-rule="evenodd" clip-rule="evenodd" d="M30.1096 0.0819016C28.9851 0.269657 27.8697 0.896597 26.9962 1.83195C25.9911 2.90818 25.4924 4.17943 25.4951 5.65848C25.4969 6.64487 25.6497 7.28322 26.11 8.22657C26.3801 8.77997 26.5892 9.06124 27.1488 9.62312C27.7424 10.2193 27.9668 10.3828 28.6198 10.6945C29.0436 10.8968 29.5681 11.1045 29.7855 11.1559C32.7969 11.8684 35.8436 10.0233 36.6111 7.02209C37.2552 4.50374 35.9818 1.73559 33.665 0.617776C32.4976 0.0545902 31.3285 -0.121589 30.1096 0.0819016ZM13.2582 3.54466C12.632 3.7453 12.2977 4.00129 11.482 4.90534C8.16627 8.57958 5.71485 11.3892 5.54381 11.7111C5.27143 12.2238 5.25977 13.081 5.5187 13.5666C6.04071 14.5456 7.14776 14.975 8.16236 14.5918C8.72041 14.3811 8.95308 14.1473 11.6578 11.08C12.745 9.84691 13.7077 8.77377 13.7969 8.69535C13.8861 8.61684 14.0822 8.55267 14.2326 8.55267C14.5477 8.55267 14.2926 8.34682 17.3894 11.1004C19.4137 12.9004 19.6887 13.1182 19.9373 13.1182C20.2759 13.1182 20.386 13.0194 21.5961 11.6315C22.3681 10.7461 22.5013 10.5524 22.5013 10.3158C22.5013 10.1631 22.4371 9.96194 22.3587 9.86876C22.2802 9.77557 20.7485 8.39459 18.9549 6.79993C16.6514 4.75199 15.5653 3.83946 15.2561 3.69231C14.6958 3.42571 13.8293 3.36172 13.2582 3.54466ZM24.423 12.7309C24.2706 12.8766 23.5293 13.6929 22.7756 14.5449C21.2413 16.2794 16.3174 21.8145 13.819 24.6134C12.9185 25.6223 10.9733 27.8052 9.49654 29.4642C8.01977 31.1233 5.77135 33.6479 4.50002 35.0745C3.17204 36.5645 2.12254 37.8135 2.0336 38.0094C1.93283 38.2314 1.87837 38.5359 1.87772 38.8806C1.87536 40.1149 2.73913 40.994 3.95844 40.9985C4.79955 41.0015 5.10984 40.7864 6.46228 39.2625C7.10634 38.5368 9.15348 36.2366 11.0114 34.151C14.5606 30.1667 19.5444 24.569 22.909 20.7875C24.1492 19.3936 24.9913 18.5129 25.1306 18.4643C25.2718 18.4149 25.4289 18.4144 25.5552 18.4628C25.6655 18.5051 26.9868 19.6403 28.4917 20.9855C29.9964 22.3307 31.3951 23.528 31.5999 23.6463C32.6366 24.2447 33.9705 24.0823 34.874 23.2478C35.1046 23.0348 36.6891 21.2875 38.3951 19.3646C41.116 16.2981 41.5121 15.8181 41.6193 15.4569C41.7737 14.9372 41.7734 14.6408 41.6179 14.1174C41.1854 12.6608 39.1945 12.2361 38.0756 13.3618C37.9172 13.5211 36.7642 14.8005 35.5134 16.2047C34.2625 17.6089 33.1555 18.7959 33.0532 18.8425C32.9509 18.8891 32.7725 18.9035 32.6568 18.8744C32.5412 18.8454 31.4496 17.9327 30.2313 16.8463C24.9866 12.1696 25.3447 12.4697 25.007 12.4677C24.7706 12.4664 24.6366 12.5268 24.423 12.7309ZM0.238302 17.922C0.107207 18.053 0 18.2383 0 18.3337C0 18.5699 0.20936 18.9571 0.370538 19.019C0.443097 19.0468 1.89036 19.0696 3.5866 19.0696H6.67067L6.88899 18.8102C7.15387 18.4954 7.12216 18.1479 6.80298 17.8671C6.59477 17.6838 6.59175 17.6836 3.53556 17.6836H0.476604L0.238302 17.922ZM3.05358 20.7372C2.77313 21.0176 2.78006 21.4551 3.06915 21.7231L3.28487 21.923H6.37464H9.4645L9.66457 21.7229C9.95358 21.434 9.95994 21.0224 9.68014 20.7205L9.51016 20.5371H6.3819H3.25364L3.05358 20.7372ZM24.238 23.6877C24.1283 23.7323 22.2832 25.766 22.0688 26.0787C21.8843 26.348 21.8947 26.5838 22.1029 26.8486C22.1977 26.9691 23.2524 27.9318 24.4468 28.988C27.13 31.3607 27.1483 31.3794 27.1483 31.7434C27.1483 32.0543 27.2024 31.989 23.7754 35.8233C22.8937 36.8098 22.0984 37.7686 22.008 37.954C21.3344 39.3356 22.3056 41.0002 23.7852 41.0002C24.5759 41.0002 24.8416 40.8726 25.5586 40.148C26.9409 38.7511 31.7551 33.2489 31.9834 32.805C32.424 31.9486 32.3549 30.8137 31.8131 30.007C31.6857 29.8174 31.1595 29.2876 30.6436 28.8296C30.1276 28.3715 28.7358 27.1346 27.5505 26.0808C24.6536 23.5052 24.8118 23.6341 24.557 23.6415C24.4353 23.645 24.2917 23.6658 24.238 23.6877Z"/>
</mask>
<path fill-rule="evenodd" clip-rule="evenodd" d="M30.1096 0.0819016C28.9851 0.269657 27.8697 0.896597 26.9962 1.83195C25.9911 2.90818 25.4924 4.17943 25.4951 5.65848C25.4969 6.64487 25.6497 7.28322 26.11 8.22657C26.3801 8.77997 26.5892 9.06124 27.1488 9.62312C27.7424 10.2193 27.9668 10.3828 28.6198 10.6945C29.0436 10.8968 29.5681 11.1045 29.7855 11.1559C32.7969 11.8684 35.8436 10.0233 36.6111 7.02209C37.2552 4.50374 35.9818 1.73559 33.665 0.617776C32.4976 0.0545902 31.3285 -0.121589 30.1096 0.0819016ZM13.2582 3.54466C12.632 3.7453 12.2977 4.00129 11.482 4.90534C8.16627 8.57958 5.71485 11.3892 5.54381 11.7111C5.27143 12.2238 5.25977 13.081 5.5187 13.5666C6.04071 14.5456 7.14776 14.975 8.16236 14.5918C8.72041 14.3811 8.95308 14.1473 11.6578 11.08C12.745 9.84691 13.7077 8.77377 13.7969 8.69535C13.8861 8.61684 14.0822 8.55267 14.2326 8.55267C14.5477 8.55267 14.2926 8.34682 17.3894 11.1004C19.4137 12.9004 19.6887 13.1182 19.9373 13.1182C20.2759 13.1182 20.386 13.0194 21.5961 11.6315C22.3681 10.7461 22.5013 10.5524 22.5013 10.3158C22.5013 10.1631 22.4371 9.96194 22.3587 9.86876C22.2802 9.77557 20.7485 8.39459 18.9549 6.79993C16.6514 4.75199 15.5653 3.83946 15.2561 3.69231C14.6958 3.42571 13.8293 3.36172 13.2582 3.54466ZM24.423 12.7309C24.2706 12.8766 23.5293 13.6929 22.7756 14.5449C21.2413 16.2794 16.3174 21.8145 13.819 24.6134C12.9185 25.6223 10.9733 27.8052 9.49654 29.4642C8.01977 31.1233 5.77135 33.6479 4.50002 35.0745C3.17204 36.5645 2.12254 37.8135 2.0336 38.0094C1.93283 38.2314 1.87837 38.5359 1.87772 38.8806C1.87536 40.1149 2.73913 40.994 3.95844 40.9985C4.79955 41.0015 5.10984 40.7864 6.46228 39.2625C7.10634 38.5368 9.15348 36.2366 11.0114 34.151C14.5606 30.1667 19.5444 24.569 22.909 20.7875C24.1492 19.3936 24.9913 18.5129 25.1306 18.4643C25.2718 18.4149 25.4289 18.4144 25.5552 18.4628C25.6655 18.5051 26.9868 19.6403 28.4917 20.9855C29.9964 22.3307 31.3951 23.528 31.5999 23.6463C32.6366 24.2447 33.9705 24.0823 34.874 23.2478C35.1046 23.0348 36.6891 21.2875 38.3951 19.3646C41.116 16.2981 41.5121 15.8181 41.6193 15.4569C41.7737 14.9372 41.7734 14.6408 41.6179 14.1174C41.1854 12.6608 39.1945 12.2361 38.0756 13.3618C37.9172 13.5211 36.7642 14.8005 35.5134 16.2047C34.2625 17.6089 33.1555 18.7959 33.0532 18.8425C32.9509 18.8891 32.7725 18.9035 32.6568 18.8744C32.5412 18.8454 31.4496 17.9327 30.2313 16.8463C24.9866 12.1696 25.3447 12.4697 25.007 12.4677C24.7706 12.4664 24.6366 12.5268 24.423 12.7309ZM0.238302 17.922C0.107207 18.053 0 18.2383 0 18.3337C0 18.5699 0.20936 18.9571 0.370538 19.019C0.443097 19.0468 1.89036 19.0696 3.5866 19.0696H6.67067L6.88899 18.8102C7.15387 18.4954 7.12216 18.1479 6.80298 17.8671C6.59477 17.6838 6.59175 17.6836 3.53556 17.6836H0.476604L0.238302 17.922ZM3.05358 20.7372C2.77313 21.0176 2.78006 21.4551 3.06915 21.7231L3.28487 21.923H6.37464H9.4645L9.66457 21.7229C9.95358 21.434 9.95994 21.0224 9.68014 20.7205L9.51016 20.5371H6.3819H3.25364L3.05358 20.7372ZM24.238 23.6877C24.1283 23.7323 22.2832 25.766 22.0688 26.0787C21.8843 26.348 21.8947 26.5838 22.1029 26.8486C22.1977 26.9691 23.2524 27.9318 24.4468 28.988C27.13 31.3607 27.1483 31.3794 27.1483 31.7434C27.1483 32.0543 27.2024 31.989 23.7754 35.8233C22.8937 36.8098 22.0984 37.7686 22.008 37.954C21.3344 39.3356 22.3056 41.0002 23.7852 41.0002C24.5759 41.0002 24.8416 40.8726 25.5586 40.148C26.9409 38.7511 31.7551 33.2489 31.9834 32.805C32.424 31.9486 32.3549 30.8137 31.8131 30.007C31.6857 29.8174 31.1595 29.2876 30.6436 28.8296C30.1276 28.3715 28.7358 27.1346 27.5505 26.0808C24.6536 23.5052 24.8118 23.6341 24.557 23.6415C24.4353 23.645 24.2917 23.6658 24.238 23.6877Z" fill="#411A4A" stroke="white" stroke-width="1.30159" mask="url(#path-1-inside-1_772_325)"/>
</svg>
