<svg width="37" height="45" viewBox="0 0 37 45" fill="none" xmlns="http://www.w3.org/2000/svg">
<mask id="path-1-inside-1_815_127" fill="white">
<path fill-rule="evenodd" clip-rule="evenodd" d="M17.7578 0.664635C15.3802 2.9122 12.0897 4.79279 8.77864 5.79647C6.48829 6.49071 3.16212 6.97959 0.719925 6.98098L0.0971964 6.98133L0.0309247 10.8014C-0.116026 19.2786 0.246068 23.6711 1.4332 27.8112C2.56829 31.7699 4.3923 35.0064 7.00109 37.6906C8.28505 39.0118 9.38591 39.9455 10.729 40.8525C12.9411 42.3465 14.8684 43.3353 17.4741 44.3132L18.5 44.6982L19.5259 44.3132C25.5417 42.0557 30.0534 38.5794 32.8695 34.0322C33.9422 32.3001 34.9387 30.0019 35.5668 27.8112C36.7539 23.6711 37.116 19.2786 36.9691 10.8014L36.9028 6.98133L36.2801 6.98098C34.6137 6.98002 32.1086 6.70254 30.2472 6.31268C26.1343 5.45123 22.204 3.43513 19.2285 0.660356C18.8368 0.295032 18.5028 -0.00201312 18.4863 0.000257067C18.4698 0.00252725 18.142 0.301493 17.7578 0.664635Z"/>
</mask>
<path fill-rule="evenodd" clip-rule="evenodd" d="M17.7578 0.664635C15.3802 2.9122 12.0897 4.79279 8.77864 5.79647C6.48829 6.49071 3.16212 6.97959 0.719925 6.98098L0.0971964 6.98133L0.0309247 10.8014C-0.116026 19.2786 0.246068 23.6711 1.4332 27.8112C2.56829 31.7699 4.3923 35.0064 7.00109 37.6906C8.28505 39.0118 9.38591 39.9455 10.729 40.8525C12.9411 42.3465 14.8684 43.3353 17.4741 44.3132L18.5 44.6982L19.5259 44.3132C25.5417 42.0557 30.0534 38.5794 32.8695 34.0322C33.9422 32.3001 34.9387 30.0019 35.5668 27.8112C36.7539 23.6711 37.116 19.2786 36.9691 10.8014L36.9028 6.98133L36.2801 6.98098C34.6137 6.98002 32.1086 6.70254 30.2472 6.31268C26.1343 5.45123 22.204 3.43513 19.2285 0.660356C18.8368 0.295032 18.5028 -0.00201312 18.4863 0.000257067C18.4698 0.00252725 18.142 0.301493 17.7578 0.664635Z" fill="#411A4A" stroke="white" stroke-width="1.22" mask="url(#path-1-inside-1_815_127)"/>
</svg>
