<svg width="397" height="227" viewBox="0 0 397 227" fill="none" xmlns="http://www.w3.org/2000/svg">
<g clip-path="url(#clip0_1213_1113)">
<path d="M228.076 92.9644C249.16 95.866 268.499 102.117 279.841 106.393C291.184 110.669 295.369 115.013 291.663 118.663C287.957 122.313 276.596 125.035 259.576 126.352C242.556 127.668 220.964 127.494 198.593 125.861C176.221 124.227 154.499 121.239 137.242 117.419C119.986 113.601 108.297 109.196 104.23 104.979C100.162 100.761 103.974 97.0007 114.999 94.3576C126.023 91.7145 146.413 88.3265 167.371 88.4943" stroke="url(#paint0_radial_1213_1113)" stroke-width="0.787944"/>
<path d="M273.553 119.661C270.368 161.085 233.43 191.304 190.461 188C147.492 184.696 117.315 147.189 120.5 105.764C123.685 64.3396 159.105 34.8957 202.074 38.1997C245.043 41.5037 276.739 78.2359 273.553 119.661Z" stroke="url(#paint1_linear_1213_1113)" stroke-width="29"/>
<g style="mix-blend-mode:hard-light" filter="url(#filter0_f_1213_1113)">
<path d="M257.925 118.459C255.386 151.485 226.032 176.175 192.342 173.585C158.652 170.994 133.417 142.107 135.956 109.08C138.496 76.0543 167.85 51.3636 201.541 53.9541C235.23 56.5446 260.465 85.4327 257.925 118.459Z" stroke="#E551DF" stroke-width="1.01593"/>
</g>
<g style="mix-blend-mode:hard-light" filter="url(#filter1_f_1213_1113)">
<path d="M257.77 118.447C255.237 151.384 225.96 176.014 192.354 173.43C158.747 170.845 133.58 142.029 136.113 109.092C138.645 76.1553 167.922 51.526 201.529 54.1101C235.134 56.6941 260.302 85.5097 257.77 118.447Z" stroke="#C751E5" stroke-width="1.32853"/>
</g>
<g style="mix-blend-mode:hard-light" filter="url(#filter2_ddi_1213_1113)">
<path d="M257.925 118.459C255.386 151.485 226.032 176.175 192.342 173.585C158.652 170.994 133.417 142.107 135.956 109.08C138.496 76.0543 167.85 51.3636 201.541 53.9541C235.23 56.5446 260.465 85.4327 257.925 118.459Z" stroke="#811FFF" stroke-width="1.01593"/>
</g>
<g filter="url(#filter3_f_1213_1113)">
<path d="M258.12 118.474C255.572 151.611 226.121 176.378 192.327 173.779C158.533 171.181 133.214 142.203 135.762 109.065C138.31 75.9283 167.762 51.1609 201.556 53.7594C235.349 56.3578 260.668 85.3365 258.12 118.474Z" stroke="#E551C4" stroke-width="0.625188"/>
</g>
<g filter="url(#filter4_f_1213_1113)">
<path d="M258.277 118.486C255.722 151.712 226.192 176.541 192.315 173.936C158.437 171.331 133.052 142.279 135.607 109.054C138.161 75.8275 167.69 50.9987 201.568 53.6036C235.445 56.2084 260.831 85.2598 258.277 118.486Z" stroke="white" stroke-width="0.312594"/>
</g>
<path d="M284.147 119.973C280.535 166.94 239.313 202.122 192.013 198.485C144.713 194.848 106.889 153.966 110.5 107C114.111 60.0338 157.799 24.6628 205.099 28.2998C252.398 31.9367 287.758 73.0073 284.147 119.973Z" stroke="url(#paint2_linear_1213_1113)" stroke-width="11.3126"/>
<path d="M273.8 119.62C270.613 161.073 233.735 192.204 191.243 188.937C148.751 185.67 117.066 149.266 120.253 107.814C123.441 66.3613 160.319 35.2307 202.81 38.4979C245.302 41.7652 276.988 78.1677 273.8 119.62Z" stroke="url(#paint3_linear_1213_1113)" stroke-width="10"/>
<path d="M278.312 119.967C274.926 163.993 235.796 196.9 190.896 193.448C145.994 189.995 112.356 151.493 115.741 107.467C119.127 63.4415 158.256 30.5339 203.157 33.9865C248.058 37.4389 281.697 75.9418 278.312 119.967Z" stroke="url(#paint4_linear_1213_1113)" stroke-width="0.950395"/>
<path d="M268.163 119.246C265.175 158.104 230.639 187.15 191.008 184.103C151.377 181.055 121.687 147.071 124.675 108.213C127.663 69.3547 162.199 40.3093 201.83 43.3566C241.461 46.4039 271.151 80.3877 268.163 119.246Z" stroke="url(#paint5_linear_1213_1113)" stroke-width="0.838849"/>
<g style="mix-blend-mode:hard-light" filter="url(#filter5_f_1213_1113)">
<path d="M288.707 120.324C284.887 170 240.735 207.138 190.061 203.241C139.387 199.345 101.431 155.893 105.251 106.218C109.07 56.5424 153.223 19.4043 203.897 23.3007C254.571 27.1971 292.527 70.6486 288.707 120.324Z" stroke="#B480FD" stroke-width="1.52809"/>
</g>
<g style="mix-blend-mode:hard-light" filter="url(#filter6_f_1213_1113)">
<path d="M288.472 120.306C284.663 169.848 240.627 206.894 190.079 203.007C139.53 199.12 101.675 155.778 105.485 106.236C109.294 56.6941 153.33 19.6483 203.878 23.5351C254.427 27.4219 292.282 70.7643 288.472 120.306Z" stroke="#A463FD" stroke-width="1.99828"/>
</g>
<g style="mix-blend-mode:hard-light" filter="url(#filter7_ddi_1213_1113)">
<path d="M288.707 120.324C284.887 170 240.735 207.138 190.061 203.241C139.387 199.345 101.431 155.893 105.251 106.218C109.07 56.5424 153.223 19.4043 203.897 23.3007C254.571 27.1971 292.527 70.6486 288.707 120.324Z" stroke="#811FFF" stroke-width="1.52809"/>
</g>
<g filter="url(#filter8_f_1213_1113)">
<path d="M289 120.347C285.168 170.189 240.869 207.443 190.038 203.534C139.208 199.626 101.125 156.038 104.957 106.195C108.79 56.3526 153.089 19.0991 203.919 23.0075C254.75 26.916 292.832 70.5039 289 120.347Z" stroke="#811FFF" stroke-width="0.940366"/>
</g>
<g filter="url(#filter9_f_1213_1113)">
<path d="M289.043 120.446C285.204 170.37 240.791 207.673 189.836 203.755C138.88 199.837 100.693 156.183 104.531 106.259C108.37 56.3358 152.782 19.0328 203.738 22.9508C254.694 26.8689 292.881 70.5231 289.043 120.446Z" stroke="white" stroke-width="0.470183"/>
</g>
<path d="M193.464 149.975C213.695 151.53 231.396 135.863 233.002 114.98C234.607 94.0974 219.509 75.9077 199.279 74.3522C179.049 72.7966 161.348 88.4644 159.742 109.347C158.136 130.23 173.234 148.419 193.464 149.975Z" fill="url(#paint6_linear_1213_1113)"/>
<path d="M193.464 149.975C213.695 151.53 231.396 135.863 233.002 114.98C234.607 94.0974 219.509 75.9077 199.279 74.3522C179.049 72.7966 161.348 88.4644 159.742 109.347C158.136 130.23 173.234 148.419 193.464 149.975Z" fill="url(#paint7_linear_1213_1113)"/>
<path d="M233.002 114.98C231.396 135.863 213.695 151.53 193.465 149.975C191.015 149.786 178.84 131.822 180.446 110.939C182.052 90.0564 191.491 76.2796 199.279 74.3523C219.51 75.9078 234.607 94.0975 233.002 114.98Z" fill="url(#paint8_linear_1213_1113)"/>
<path d="M233.002 114.98C231.396 135.863 213.695 151.53 193.465 149.975C191.015 149.786 178.84 131.822 180.446 110.939C182.052 90.0564 191.491 76.2796 199.279 74.3523C219.51 75.9078 234.607 94.0975 233.002 114.98Z" fill="url(#paint9_linear_1213_1113)"/>
<path d="M147.714 89.424C154.096 88.6503 161.778 88.8649 166.054 88.9303L167.31 88.9249L165.057 92.9005C165.057 92.9005 163.515 95.6255 162.73 97.4664C162.042 99.0802 161.328 101.503 161.328 101.503C160.535 101.785 158.259 101.667 160.305 103.306C162.352 104.945 171.045 107.41 177.854 108.9C190.387 111.641 208.508 112.343 210.964 112.532C213.419 112.721 224.462 111.698 226.774 111.179C231.297 110.164 232.546 108.067 232.546 108.067C232.552 107.368 232.305 105.207 231.502 102.359C230.508 98.8313 229.906 96.7344 228.629 93.6398C230.027 93.879 232.675 94.5665 234.162 94.7598C236.02 95.0015 250.418 96.9335 255.358 98.2024C260.298 99.4714 280.094 105.157 286.19 108.095C292.287 111.034 292.794 114.621 292.794 114.621C292.794 114.621 292.751 116.453 292.593 117.231C292.434 118.009 291.344 119.038 289.795 119.906C288.526 120.994 279.328 123.729 276.412 124.394C273.497 125.058 262.506 126.966 250.011 127.586C237.516 128.206 214.106 128.05 192.034 126.19C170.365 124.365 141.238 119.002 137.236 118.124C127.522 115.994 118.45 112.103 109.635 108.561C106.595 107.339 102.472 103.897 102.555 102.817C102.638 101.736 103.113 99.7093 104.419 98.1304C105.726 96.5516 113.936 94.0224 118.876 92.7229C123.817 91.4234 139.738 90.3912 147.714 89.424Z" fill="#130029"/>
<path d="M228.65 93.5221C249.972 96.4813 268.026 100.587 279.604 105.108C291.181 109.63 295.533 114.275 291.885 118.219C288.237 122.162 276.826 125.149 259.68 126.646C242.533 128.145 220.762 128.059 198.234 126.403C175.706 124.747 153.881 121.629 136.636 117.603C119.392 113.576 107.844 108.903 104.047 104.412C100.249 99.9208 104.446 95.9039 115.893 93.0746C127.34 90.2454 145.539 88.7149 166.811 88.8865" stroke="#9F5AFD"/>
<g style="mix-blend-mode:hard-light" filter="url(#filter10_f_1213_1113)">
<path d="M229.173 93.2398C250.495 96.1991 268.55 100.304 280.127 104.826C291.705 109.348 296.056 113.993 292.408 117.936C288.76 121.88 277.35 124.866 260.203 126.365C243.057 127.864 221.285 127.777 198.757 126.121C176.23 124.465 154.404 121.347 137.159 117.32C119.915 113.294 108.368 108.62 104.57 104.129C100.772 99.6386 104.97 95.6217 116.417 92.7925C127.863 89.9632 145.818 88.5048 167.091 88.6766" stroke="#BE93FD" stroke-width="0.65"/>
</g>
<g style="mix-blend-mode:hard-light" filter="url(#filter11_f_1213_1113)">
<path d="M229.173 93.2398C250.495 96.1991 268.55 100.304 280.127 104.826C291.705 109.348 296.056 113.993 292.408 117.936C288.76 121.88 277.35 124.866 260.203 126.365C243.057 127.864 221.285 127.777 198.757 126.121C176.23 124.465 154.404 121.347 137.159 117.32C119.915 113.294 108.368 108.62 104.57 104.129C100.772 99.6386 104.97 95.6217 116.417 92.7925C127.863 89.9632 145.818 88.5048 167.091 88.6766" stroke="#BE93FD" stroke-width="0.85"/>
</g>
<g style="mix-blend-mode:hard-light" filter="url(#filter12_ddi_1213_1113)">
<path d="M228.667 93.1412C249.989 96.1005 268.549 100.304 280.127 104.826C291.704 109.348 296.056 113.993 292.408 117.936C288.76 121.88 277.349 124.866 260.203 126.365C243.057 127.864 221.285 127.777 198.757 126.121C176.229 124.465 154.404 121.347 137.159 117.32C119.915 113.294 108.368 108.62 104.57 104.129C100.772 99.6386 104.97 95.6217 116.417 92.7925C127.863 89.9632 146.037 88.7532 167.31 88.9249" stroke="#C49CFD" stroke-width="0.65"/>
</g>
<g filter="url(#filter13_f_1213_1113)">
<path d="M228.667 93.1412C249.989 96.1005 268.549 100.304 280.127 104.826C291.704 109.348 296.056 113.993 292.408 117.936C288.76 121.88 277.349 124.866 260.203 126.365C243.057 127.864 221.285 127.777 198.757 126.121C176.229 124.465 154.404 121.347 137.159 117.32C119.915 113.294 108.368 108.62 104.57 104.129C100.772 99.6386 104.97 95.6217 116.417 92.7925C127.863 89.9632 146.037 88.7532 167.31 88.9249" stroke="#C49CFD" stroke-width="0.4"/>
</g>
<g filter="url(#filter14_f_1213_1113)">
<path d="M228.169 93.1029C249.491 96.0622 268.549 100.304 280.127 104.826C291.704 109.348 296.056 113.993 292.408 117.936C288.76 121.88 277.349 124.866 260.203 126.365C243.057 127.864 221.285 127.777 198.757 126.121C176.229 124.465 154.404 121.347 137.159 117.32C119.915 113.294 108.368 108.62 104.57 104.129C100.772 99.6386 104.97 95.6217 116.417 92.7925C127.863 89.9632 146.037 88.7532 167.31 88.9249" stroke="white" stroke-width="0.2"/>
</g>
<path d="M162.632 97.5917L165.009 92.7598C161.602 92.8321 153.428 93.3737 147.13 95.8983C144.4 96.9922 139.572 98.3261 139.419 100.32C139.266 102.314 139.189 103.311 142.943 106.107C146.697 108.903 152.781 110.876 155.523 112.089C158.264 113.303 172.765 116.424 177.799 117.313C182.834 118.201 194.095 119.255 200.87 119.588C218.944 120.476 227.551 119.132 233.264 118.569C238.977 118.005 249.165 115.779 252.478 112.022C253.939 110.364 253.309 108.576 252.297 106.994C251.285 105.411 246.929 103.071 243.06 101.77C239.966 100.73 231.793 98.2292 230.278 98.2799C230.278 98.2799 231.402 102.378 231.85 103.917C232.342 105.601 232.541 107.982 232.541 107.982L231.467 108.902C231.467 108.902 225.677 112.469 200.355 111.525C194.142 111.293 174.367 108.022 169.956 106.68C166.474 105.62 163.379 105.171 160.676 103.459L159.219 102.846L158.797 101.81L159.334 101.35L161.328 101.503L162.632 97.5917Z" fill="url(#paint10_linear_1213_1113)"/>
<g style="mix-blend-mode:hard-light" filter="url(#filter15_f_1213_1113)">
<path d="M237.157 107.888C235.264 110.706 229.731 111.261 222.459 111.616C215.187 111.971 205.951 111.779 196.372 111.072C186.793 110.366 177.483 109.191 170.08 107.754C162.675 106.317 156.89 104.027 155.124 102.531C153.359 101.035 155.239 101.035 155.239 101.035L156.366 101.122" stroke="#E56951" stroke-width="0.512164"/>
</g>
<g style="mix-blend-mode:hard-light" filter="url(#filter16_f_1213_1113)">
<path d="M232.464 108.979C231.055 110.245 226.712 111.167 220.198 111.583C213.684 111.999 205.415 111.882 196.844 111.253C188.273 110.625 179.948 109.524 173.33 108.145C166.713 106.766 162.226 105.196 160.657 103.712" stroke="#E56951" stroke-width="0.669752"/>
</g>
<g style="mix-blend-mode:hard-light" filter="url(#filter17_di_1213_1113)">
<path d="M160.628 101.493C160.203 101.427 159.292 101.311 159.128 101.378C158.923 101.461 158.817 101.552 158.779 102.044C158.749 102.438 159.382 102.766 159.566 102.946C161.123 104.429 166.634 106.567 173.206 107.942C179.779 109.318 188.07 110.609 196.583 111.234C205.095 111.858 213.309 111.97 219.779 111.551C226.249 111.132 230.564 110.208 231.965 108.941C232.143 108.799 232.508 108.416 232.538 108.019" stroke="white" stroke-opacity="0.2" stroke-width="0.512164"/>
</g>
<g filter="url(#filter18_f_1213_1113)">
<path d="M160.484 101.438C160.223 101.418 159.62 101.372 159.306 101.348C158.912 101.317 158.685 101.696 158.859 102.006C158.998 102.254 159.407 102.608 159.593 102.754C161.144 104.235 166.306 106.738 172.853 108.111C179.399 109.483 187.636 110.576 196.115 111.197C204.594 111.819 213.13 112.407 219.576 111.987C226.021 111.567 230.342 110.461 231.955 109.079L232.492 108.619C232.492 108.619 232.499 108.519 232.53 108.12" stroke="#E56951" stroke-width="0.315178"/>
</g>
<g filter="url(#filter19_f_1213_1113)">
<path d="M159.838 101.41C159.607 101.36 159.727 101.366 159.325 101.414C158.823 101.473 158.808 101.668 158.801 101.765C158.793 101.863 158.763 102.252 159.129 102.673C159.421 103.009 160.357 103.425 160.64 103.641C162.572 104.784 166.669 106.665 173.256 108.032C179.843 109.399 187.834 110.591 196.365 111.217C204.896 111.843 213.125 111.962 219.608 111.554C226.09 111.145 230.413 110.235 231.815 108.984C232.044 108.819 232.51 108.391 232.54 107.995" stroke="white" stroke-width="0.157589"/>
</g>
<g style="mix-blend-mode:hard-light" filter="url(#filter20_f_1213_1113)">
<path d="M229.745 94.7285C246.79 97.4168 260.758 100.965 269.293 104.774C277.828 108.584 280.409 112.421 276.599 115.64C272.79 118.859 262.824 121.262 248.381 122.443C233.939 123.625 215.904 123.513 197.319 122.126C178.733 120.74 160.734 118.164 146.357 114.833C131.98 111.501 122.106 107.618 118.398 103.839C114.689 100.059 117.375 96.6143 126.003 94.0852C134.63 91.5562 148.671 90.0974 165.756 89.9552" stroke="white" stroke-width="0.65"/>
</g>
<g style="mix-blend-mode:hard-light" filter="url(#filter21_i_1213_1113)">
<path d="M229.745 94.7285C246.79 97.4168 260.758 100.965 269.293 104.774C277.828 108.584 280.409 112.421 276.599 115.64C272.79 118.859 262.824 121.262 248.381 122.443C233.939 123.625 215.904 123.513 197.319 122.126C178.733 120.74 160.734 118.164 146.357 114.833C131.98 111.501 122.106 107.618 118.398 103.839C114.689 100.059 117.375 96.6143 126.003 94.0852C134.63 91.5562 148.671 90.0974 165.756 89.9552" stroke="#49306A" stroke-width="0.85"/>
</g>
<path d="M229.745 94.7285C246.79 97.4168 260.758 100.965 269.293 104.774C277.828 108.584 280.409 112.421 276.599 115.64C272.79 118.859 262.824 121.262 248.381 122.443C233.939 123.625 215.904 123.513 197.319 122.126C178.733 120.74 160.734 118.164 146.357 114.833C131.98 111.501 122.106 107.618 118.398 103.839C114.689 100.059 117.375 96.6143 126.003 94.0852C134.63 91.5562 149.649 90.0258 166.735 89.8835" stroke="white" stroke-opacity="0.62" stroke-width="0.4"/>
<path d="M229.745 94.7285C246.79 97.4168 260.758 100.965 269.293 104.774C277.828 108.584 280.409 112.421 276.599 115.64C272.79 118.859 262.824 121.262 248.381 122.443C233.939 123.625 215.904 123.513 197.319 122.126C178.733 120.74 160.734 118.164 146.357 114.833C131.98 111.501 122.106 107.618 118.398 103.839C114.689 100.059 117.375 96.6143 126.003 94.0852C134.63 91.5562 149.649 90.0258 166.735 89.8835" stroke="#49306A" stroke-width="0.2"/>
<g style="mix-blend-mode:hard-light" filter="url(#filter22_f_1213_1113)">
<path d="M230.089 97.9573C239.935 100.318 247.205 103.161 250.839 106.071C254.473 108.981 254.28 111.805 250.288 114.132C246.296 116.459 238.715 118.166 228.65 119.005C218.586 119.844 206.567 119.769 194.346 118.793C182.124 117.818 170.343 115.991 160.719 113.58C151.096 111.169 144.136 108.3 140.855 105.392C137.573 102.485 138.143 99.6901 142.48 97.4168C146.817 95.1436 154.695 93.5106 164.963 92.7561" stroke="#E56951" stroke-width="0.65"/>
</g>
<g style="mix-blend-mode:hard-light" filter="url(#filter23_f_1213_1113)">
<path d="M230.089 97.9573C239.935 100.318 247.205 103.161 250.839 106.071C254.473 108.981 254.28 111.805 250.288 114.132C246.296 116.459 238.715 118.166 228.65 119.005C218.586 119.844 206.567 119.769 194.346 118.793C182.124 117.818 170.343 115.991 160.719 113.58C151.096 111.169 144.136 108.3 140.855 105.392C137.573 102.485 138.143 99.6901 142.48 97.4168C146.817 95.1436 154.695 93.5106 164.963 92.7561" stroke="#E56951" stroke-width="0.85"/>
</g>
<g style="mix-blend-mode:hard-light" filter="url(#filter24_ddi_1213_1113)">
<path d="M230.089 97.9573C239.935 100.318 247.205 103.161 250.839 106.071C254.473 108.981 254.28 111.805 250.288 114.132C246.296 116.459 238.715 118.166 228.65 119.005C218.586 119.844 206.567 119.769 194.346 118.793C182.124 117.818 170.343 115.991 160.719 113.58C151.096 111.169 144.136 108.3 140.855 105.392C137.573 102.485 138.143 99.6901 142.48 97.4168C146.817 95.1436 154.695 93.5106 164.963 92.7561" stroke="#DB5C3A" stroke-opacity="0.2" stroke-width="0.65"/>
</g>
<g filter="url(#filter25_f_1213_1113)">
<path d="M230.089 97.9573C239.935 100.318 247.205 103.161 250.839 106.071C254.473 108.981 254.28 111.805 250.288 114.132C246.296 116.459 238.715 118.166 228.65 119.005C218.586 119.844 206.567 119.769 194.346 118.793C182.124 117.818 170.343 115.991 160.719 113.58C151.096 111.169 144.136 108.3 140.855 105.392C137.573 102.485 138.143 99.6901 142.48 97.4168C146.817 95.1436 154.695 93.5106 164.963 92.7561" stroke="#FF9983" stroke-width="0.4"/>
</g>
<g filter="url(#filter26_f_1213_1113)">
<path d="M230.089 97.9573C239.935 100.318 247.205 103.161 250.839 106.071C254.473 108.981 254.28 111.805 250.288 114.132C246.296 116.459 238.715 118.166 228.65 119.005C218.586 119.844 206.567 119.769 194.346 118.793C182.124 117.818 170.343 115.991 160.719 113.58C151.096 111.169 144.136 108.3 140.855 105.392C137.573 102.485 138.143 99.6901 142.48 97.4168C146.817 95.1436 154.695 93.5106 164.963 92.7561" stroke="white" stroke-width="0.2"/>
</g>
<path d="M231.025 100.311C237.062 102.308 240.929 104.511 242.145 106.647C243.361 108.782 241.872 110.755 237.863 112.32C233.855 113.885 227.504 114.973 219.6 115.449C211.697 115.925 202.589 115.769 193.41 114.998C184.231 114.227 175.386 112.877 167.975 111.114C160.563 109.352 154.913 107.256 151.727 105.087C148.541 102.918 147.959 100.771 150.053 98.9139C152.148 97.0566 156.828 95.5709 163.509 94.6413" stroke="#E56951"/>
<g style="mix-blend-mode:hard-light" filter="url(#filter27_f_1213_1113)">
<path d="M231.024 100.319C237.062 102.317 240.928 104.52 242.144 106.655C243.36 108.791 241.871 110.763 237.863 112.328C233.855 113.894 227.504 114.982 219.6 115.458C211.696 115.934 202.588 115.777 193.409 115.006C184.231 114.235 175.385 112.885 167.974 111.123C160.563 109.361 154.913 107.265 151.727 105.096C148.541 102.927 147.958 100.78 150.053 98.9227C152.147 97.0654 156.827 95.5797 163.508 94.6501" stroke="#FF9983" stroke-width="0.65"/>
</g>
<g style="mix-blend-mode:hard-light" filter="url(#filter28_f_1213_1113)">
<path d="M231.024 100.319C237.062 102.317 240.928 104.52 242.144 106.655C243.36 108.791 241.871 110.763 237.863 112.328C233.855 113.894 227.504 114.982 219.6 115.458C211.696 115.934 202.588 115.777 193.409 115.006C184.231 114.235 175.385 112.885 167.974 111.123C160.563 109.361 154.913 107.265 151.727 105.096C148.541 102.927 147.958 100.78 150.053 98.9227C152.147 97.0654 156.827 95.5797 163.508 94.6501" stroke="#FF9983" stroke-width="0.85"/>
</g>
<g style="mix-blend-mode:hard-light" filter="url(#filter29_ddi_1213_1113)">
<path d="M231.024 100.319C237.062 102.317 240.928 104.52 242.144 106.655C243.36 108.791 241.871 110.763 237.863 112.328C233.855 113.894 227.504 114.982 219.6 115.458C211.696 115.934 202.588 115.777 193.409 115.006C184.231 114.235 175.385 112.885 167.974 111.123C160.563 109.361 154.913 107.265 151.727 105.096C148.541 102.927 147.958 100.78 150.053 98.9227C152.147 97.0654 156.827 95.5797 163.508 94.6501" stroke="#E56951" stroke-opacity="0.2" stroke-width="0.65"/>
</g>
<g filter="url(#filter30_f_1213_1113)">
<path d="M231.024 100.319C237.062 102.317 240.928 104.52 242.144 106.655C243.36 108.791 241.871 110.763 237.863 112.328C233.855 113.894 227.504 114.982 219.6 115.458C211.696 115.934 202.588 115.777 193.409 115.006C184.231 114.235 175.385 112.885 167.974 111.123C160.563 109.361 154.913 107.265 151.727 105.096C148.541 102.927 147.958 100.78 150.053 98.9227C152.147 97.0654 156.827 95.5797 163.508 94.6501" stroke="#FF9983" stroke-width="0.4"/>
</g>
<g filter="url(#filter31_f_1213_1113)">
<path d="M231.024 100.319C237.062 102.317 240.928 104.52 242.144 106.655C243.36 108.791 241.871 110.763 237.863 112.328C233.855 113.894 227.504 114.982 219.6 115.458C211.696 115.934 202.588 115.777 193.409 115.006C184.231 114.235 175.385 112.885 167.974 111.123C160.563 109.361 154.913 107.265 151.727 105.096C148.541 102.927 147.958 100.78 150.053 98.9227C152.147 97.0654 156.827 95.5797 163.508 94.6501" stroke="white" stroke-width="0.2"/>
</g>
</g>
<defs>
<filter id="filter0_f_1213_1113" x="130.584" y="48.5706" width="132.715" height="130.398" filterUnits="userSpaceOnUse" color-interpolation-filters="sRGB">
<feFlood flood-opacity="0" result="BackgroundImageFix"/>
<feBlend mode="normal" in="SourceGraphic" in2="BackgroundImageFix" result="shape"/>
<feGaussianBlur stdDeviation="2.34446" result="effect1_foregroundBlur_1213_1113"/>
</filter>
<filter id="filter1_f_1213_1113" x="133.71" y="51.6968" width="126.463" height="124.146" filterUnits="userSpaceOnUse" color-interpolation-filters="sRGB">
<feFlood flood-opacity="0" result="BackgroundImageFix"/>
<feBlend mode="normal" in="SourceGraphic" in2="BackgroundImageFix" result="shape"/>
<feGaussianBlur stdDeviation="0.781485" result="effect1_foregroundBlur_1213_1113"/>
</filter>
<filter id="filter2_ddi_1213_1113" x="133.241" y="52.7906" width="127.401" height="125.084" filterUnits="userSpaceOnUse" color-interpolation-filters="sRGB">
<feFlood flood-opacity="0" result="BackgroundImageFix"/>
<feColorMatrix in="SourceAlpha" type="matrix" values="0 0 0 0 0 0 0 0 0 0 0 0 0 0 0 0 0 0 127 0" result="hardAlpha"/>
<feOffset dy="1.01593"/>
<feGaussianBlur stdDeviation="0.390743"/>
<feColorMatrix type="matrix" values="0 0 0 0 0.540365 0 0 0 0 0.256043 0 0 0 0 0.193631 0 0 0 0.7 0"/>
<feBlend mode="multiply" in2="BackgroundImageFix" result="effect1_dropShadow_1213_1113"/>
<feColorMatrix in="SourceAlpha" type="matrix" values="0 0 0 0 0 0 0 0 0 0 0 0 0 0 0 0 0 0 127 0" result="hardAlpha"/>
<feOffset dy="1.56297"/>
<feGaussianBlur stdDeviation="1.01593"/>
<feColorMatrix type="matrix" values="0 0 0 0 0.541176 0 0 0 0 0.254902 0 0 0 0 0.192157 0 0 0 1 0"/>
<feBlend mode="color-dodge" in2="effect1_dropShadow_1213_1113" result="effect2_dropShadow_1213_1113"/>
<feBlend mode="normal" in="SourceGraphic" in2="effect2_dropShadow_1213_1113" result="shape"/>
<feColorMatrix in="SourceAlpha" type="matrix" values="0 0 0 0 0 0 0 0 0 0 0 0 0 0 0 0 0 0 127 0" result="hardAlpha"/>
<feOffset dx="-0.101593" dy="0.203186"/>
<feGaussianBlur stdDeviation="0.0507965"/>
<feComposite in2="hardAlpha" operator="arithmetic" k2="-1" k3="1"/>
<feColorMatrix type="matrix" values="0 0 0 0 1 0 0 0 0 1 0 0 0 0 1 0 0 0 0.5 0"/>
<feBlend mode="normal" in2="shape" result="effect3_innerShadow_1213_1113"/>
</filter>
<filter id="filter3_f_1213_1113" x="135.117" y="53.1032" width="123.649" height="121.332" filterUnits="userSpaceOnUse" color-interpolation-filters="sRGB">
<feFlood flood-opacity="0" result="BackgroundImageFix"/>
<feBlend mode="normal" in="SourceGraphic" in2="BackgroundImageFix" result="shape"/>
<feGaussianBlur stdDeviation="0.0781486" result="effect1_foregroundBlur_1213_1113"/>
</filter>
<filter id="filter4_f_1213_1113" x="135.169" y="53.1556" width="123.545" height="121.229" filterUnits="userSpaceOnUse" color-interpolation-filters="sRGB">
<feFlood flood-opacity="0" result="BackgroundImageFix"/>
<feBlend mode="normal" in="SourceGraphic" in2="BackgroundImageFix" result="shape"/>
<feGaussianBlur stdDeviation="0.052099" result="effect1_foregroundBlur_1213_1113"/>
</filter>
<filter id="filter5_f_1213_1113" x="97.1689" y="15.2034" width="199.62" height="196.136" filterUnits="userSpaceOnUse" color-interpolation-filters="sRGB">
<feFlood flood-opacity="0" result="BackgroundImageFix"/>
<feBlend mode="normal" in="SourceGraphic" in2="BackgroundImageFix" result="shape"/>
<feGaussianBlur stdDeviation="3.52637" result="effect1_foregroundBlur_1213_1113"/>
</filter>
<filter id="filter6_f_1213_1113" x="101.871" y="19.9052" width="190.216" height="186.732" filterUnits="userSpaceOnUse" color-interpolation-filters="sRGB">
<feFlood flood-opacity="0" result="BackgroundImageFix"/>
<feBlend mode="normal" in="SourceGraphic" in2="BackgroundImageFix" result="shape"/>
<feGaussianBlur stdDeviation="1.17546" result="effect1_foregroundBlur_1213_1113"/>
</filter>
<filter id="filter7_ddi_1213_1113" x="101.165" y="21.5508" width="191.627" height="188.142" filterUnits="userSpaceOnUse" color-interpolation-filters="sRGB">
<feFlood flood-opacity="0" result="BackgroundImageFix"/>
<feColorMatrix in="SourceAlpha" type="matrix" values="0 0 0 0 0 0 0 0 0 0 0 0 0 0 0 0 0 0 127 0" result="hardAlpha"/>
<feOffset dy="1.52809"/>
<feGaussianBlur stdDeviation="0.587729"/>
<feColorMatrix type="matrix" values="0 0 0 0 0.492313 0 0 0 0 0.192157 0 0 0 0 0.541176 0 0 0 0.7 0"/>
<feBlend mode="multiply" in2="BackgroundImageFix" result="effect1_dropShadow_1213_1113"/>
<feColorMatrix in="SourceAlpha" type="matrix" values="0 0 0 0 0 0 0 0 0 0 0 0 0 0 0 0 0 0 127 0" result="hardAlpha"/>
<feOffset dy="2.35091"/>
<feGaussianBlur stdDeviation="1.52809"/>
<feColorMatrix type="matrix" values="0 0 0 0 0.541176 0 0 0 0 0.192157 0 0 0 0 0.485333 0 0 0 1 0"/>
<feBlend mode="color-dodge" in2="effect1_dropShadow_1213_1113" result="effect2_dropShadow_1213_1113"/>
<feBlend mode="normal" in="SourceGraphic" in2="effect2_dropShadow_1213_1113" result="shape"/>
<feColorMatrix in="SourceAlpha" type="matrix" values="0 0 0 0 0 0 0 0 0 0 0 0 0 0 0 0 0 0 127 0" result="hardAlpha"/>
<feOffset dx="-0.152809" dy="0.305619"/>
<feGaussianBlur stdDeviation="0.0764047"/>
<feComposite in2="hardAlpha" operator="arithmetic" k2="-1" k3="1"/>
<feColorMatrix type="matrix" values="0 0 0 0 1 0 0 0 0 1 0 0 0 0 1 0 0 0 0.5 0"/>
<feBlend mode="normal" in2="shape" result="effect3_innerShadow_1213_1113"/>
</filter>
<filter id="filter8_f_1213_1113" x="103.987" y="22.0208" width="185.984" height="182.5" filterUnits="userSpaceOnUse" color-interpolation-filters="sRGB">
<feFlood flood-opacity="0" result="BackgroundImageFix"/>
<feBlend mode="normal" in="SourceGraphic" in2="BackgroundImageFix" result="shape"/>
<feGaussianBlur stdDeviation="0.117546" result="effect1_foregroundBlur_1213_1113"/>
</filter>
<filter id="filter9_f_1213_1113" x="103.874" y="22.2766" width="185.827" height="182.153" filterUnits="userSpaceOnUse" color-interpolation-filters="sRGB">
<feFlood flood-opacity="0" result="BackgroundImageFix"/>
<feBlend mode="normal" in="SourceGraphic" in2="BackgroundImageFix" result="shape"/>
<feGaussianBlur stdDeviation="0.0783638" result="effect1_foregroundBlur_1213_1113"/>
</filter>
<filter id="filter10_f_1213_1113" x="99.8818" y="85.3379" width="197.108" height="45.4165" filterUnits="userSpaceOnUse" color-interpolation-filters="sRGB">
<feFlood flood-opacity="0" result="BackgroundImageFix"/>
<feBlend mode="normal" in="SourceGraphic" in2="BackgroundImageFix" result="shape"/>
<feGaussianBlur stdDeviation="1.5" result="effect1_foregroundBlur_1213_1113"/>
</filter>
<filter id="filter11_f_1213_1113" x="101.782" y="87.238" width="193.308" height="41.6162" filterUnits="userSpaceOnUse" color-interpolation-filters="sRGB">
<feFlood flood-opacity="0" result="BackgroundImageFix"/>
<feBlend mode="normal" in="SourceGraphic" in2="BackgroundImageFix" result="shape"/>
<feGaussianBlur stdDeviation="0.5" result="effect1_foregroundBlur_1213_1113"/>
</filter>
<filter id="filter12_ddi_1213_1113" x="101.582" y="88.284" width="193.708" height="41.7704" filterUnits="userSpaceOnUse" color-interpolation-filters="sRGB">
<feFlood flood-opacity="0" result="BackgroundImageFix"/>
<feColorMatrix in="SourceAlpha" type="matrix" values="0 0 0 0 0 0 0 0 0 0 0 0 0 0 0 0 0 0 127 0" result="hardAlpha"/>
<feOffset dy="0.65"/>
<feGaussianBlur stdDeviation="0.25"/>
<feColorMatrix type="matrix" values="0 0 0 0 1 0 0 0 0 0.6 0 0 0 0 0.513726 0 0 0 0.15 0"/>
<feBlend mode="multiply" in2="BackgroundImageFix" result="effect1_dropShadow_1213_1113"/>
<feColorMatrix in="SourceAlpha" type="matrix" values="0 0 0 0 0 0 0 0 0 0 0 0 0 0 0 0 0 0 127 0" result="hardAlpha"/>
<feOffset dy="1"/>
<feGaussianBlur stdDeviation="0.65"/>
<feColorMatrix type="matrix" values="0 0 0 0 1 0 0 0 0 0.6 0 0 0 0 0.513726 0 0 0 0.56 0"/>
<feBlend mode="color-dodge" in2="effect1_dropShadow_1213_1113" result="effect2_dropShadow_1213_1113"/>
<feBlend mode="normal" in="SourceGraphic" in2="effect2_dropShadow_1213_1113" result="shape"/>
<feColorMatrix in="SourceAlpha" type="matrix" values="0 0 0 0 0 0 0 0 0 0 0 0 0 0 0 0 0 0 127 0" result="hardAlpha"/>
<feOffset dx="-0.065" dy="0.13"/>
<feGaussianBlur stdDeviation="0.0325"/>
<feComposite in2="hardAlpha" operator="arithmetic" k2="-1" k3="1"/>
<feColorMatrix type="matrix" values="0 0 0 0 1 0 0 0 0 1 0 0 0 0 1 0 0 0 0.5 0"/>
<feBlend mode="normal" in2="shape" result="effect3_innerShadow_1213_1113"/>
</filter>
<filter id="filter13_f_1213_1113" x="102.907" y="88.609" width="191.058" height="39.1204" filterUnits="userSpaceOnUse" color-interpolation-filters="sRGB">
<feFlood flood-opacity="0" result="BackgroundImageFix"/>
<feBlend mode="normal" in="SourceGraphic" in2="BackgroundImageFix" result="shape"/>
<feGaussianBlur stdDeviation="0.05" result="effect1_foregroundBlur_1213_1113"/>
</filter>
<filter id="filter14_f_1213_1113" x="103.04" y="88.7422" width="190.792" height="38.8538" filterUnits="userSpaceOnUse" color-interpolation-filters="sRGB">
<feFlood flood-opacity="0" result="BackgroundImageFix"/>
<feBlend mode="normal" in="SourceGraphic" in2="BackgroundImageFix" result="shape"/>
<feGaussianBlur stdDeviation="0.0333333" result="effect1_foregroundBlur_1213_1113"/>
</filter>
<filter id="filter15_f_1213_1113" x="151.748" y="98.4152" width="87.9852" height="15.9948" filterUnits="userSpaceOnUse" color-interpolation-filters="sRGB">
<feFlood flood-opacity="0" result="BackgroundImageFix"/>
<feBlend mode="normal" in="SourceGraphic" in2="BackgroundImageFix" result="shape"/>
<feGaussianBlur stdDeviation="1.18192" result="effect1_foregroundBlur_1213_1113"/>
</filter>
<filter id="filter16_f_1213_1113" x="159.639" y="102.681" width="73.8374" height="10.2697" filterUnits="userSpaceOnUse" color-interpolation-filters="sRGB">
<feFlood flood-opacity="0" result="BackgroundImageFix"/>
<feBlend mode="normal" in="SourceGraphic" in2="BackgroundImageFix" result="shape"/>
<feGaussianBlur stdDeviation="0.393972" result="effect1_foregroundBlur_1213_1113"/>
</filter>
<filter id="filter17_di_1213_1113" x="157.498" y="100.865" width="76.3201" height="13.003" filterUnits="userSpaceOnUse" color-interpolation-filters="sRGB">
<feFlood flood-opacity="0" result="BackgroundImageFix"/>
<feColorMatrix in="SourceAlpha" type="matrix" values="0 0 0 0 0 0 0 0 0 0 0 0 0 0 0 0 0 0 127 0" result="hardAlpha"/>
<feOffset dy="0.787944"/>
<feGaussianBlur stdDeviation="0.512164"/>
<feColorMatrix type="matrix" values="0 0 0 0 0.675 0 0 0 0 0.352171 0 0 0 0 0.289688 0 0 0 1 0"/>
<feBlend mode="color-dodge" in2="BackgroundImageFix" result="effect1_dropShadow_1213_1113"/>
<feBlend mode="normal" in="SourceGraphic" in2="effect1_dropShadow_1213_1113" result="shape"/>
<feColorMatrix in="SourceAlpha" type="matrix" values="0 0 0 0 0 0 0 0 0 0 0 0 0 0 0 0 0 0 127 0" result="hardAlpha"/>
<feOffset dx="-0.0512164" dy="0.102433"/>
<feGaussianBlur stdDeviation="0.0256082"/>
<feComposite in2="hardAlpha" operator="arithmetic" k2="-1" k3="1"/>
<feColorMatrix type="matrix" values="0 0 0 0 1 0 0 0 0 1 0 0 0 0 1 0 0 0 0.5 0"/>
<feBlend mode="normal" in2="shape" result="effect2_innerShadow_1213_1113"/>
</filter>
<filter id="filter18_f_1213_1113" x="158.563" y="101.11" width="74.2032" height="11.2552" filterUnits="userSpaceOnUse" color-interpolation-filters="sRGB">
<feFlood flood-opacity="0" result="BackgroundImageFix"/>
<feBlend mode="normal" in="SourceGraphic" in2="BackgroundImageFix" result="shape"/>
<feGaussianBlur stdDeviation="0.0393972" result="effect1_foregroundBlur_1213_1113"/>
</filter>
<filter id="filter19_f_1213_1113" x="158.665" y="101.244" width="74.0059" height="10.6793" filterUnits="userSpaceOnUse" color-interpolation-filters="sRGB">
<feFlood flood-opacity="0" result="BackgroundImageFix"/>
<feBlend mode="normal" in="SourceGraphic" in2="BackgroundImageFix" result="shape"/>
<feGaussianBlur stdDeviation="0.0262648" result="effect1_foregroundBlur_1213_1113"/>
</filter>
<filter id="filter20_f_1213_1113" x="113.448" y="86.6301" width="168.191" height="39.9495" filterUnits="userSpaceOnUse" color-interpolation-filters="sRGB">
<feFlood flood-opacity="0" result="BackgroundImageFix"/>
<feBlend mode="normal" in="SourceGraphic" in2="BackgroundImageFix" result="shape"/>
<feGaussianBlur stdDeviation="1.5" result="effect1_foregroundBlur_1213_1113"/>
</filter>
<filter id="filter21_i_1213_1113" x="116.349" y="89.5303" width="162.391" height="39.1494" filterUnits="userSpaceOnUse" color-interpolation-filters="sRGB">
<feFlood flood-opacity="0" result="BackgroundImageFix"/>
<feBlend mode="normal" in="SourceGraphic" in2="BackgroundImageFix" result="shape"/>
<feColorMatrix in="SourceAlpha" type="matrix" values="0 0 0 0 0 0 0 0 0 0 0 0 0 0 0 0 0 0 127 0" result="hardAlpha"/>
<feOffset dy="5"/>
<feGaussianBlur stdDeviation="11"/>
<feComposite in2="hardAlpha" operator="arithmetic" k2="-1" k3="1"/>
<feColorMatrix type="matrix" values="0 0 0 0 0.675 0 0 0 0 0.419062 0 0 0 0 0.6204 0 0 0 1 0"/>
<feBlend mode="normal" in2="shape" result="effect1_innerShadow_1213_1113"/>
</filter>
<filter id="filter22_f_1213_1113" x="135.425" y="89.4321" width="121.33" height="33.4768" filterUnits="userSpaceOnUse" color-interpolation-filters="sRGB">
<feFlood flood-opacity="0" result="BackgroundImageFix"/>
<feBlend mode="normal" in="SourceGraphic" in2="BackgroundImageFix" result="shape"/>
<feGaussianBlur stdDeviation="1.5" result="effect1_foregroundBlur_1213_1113"/>
</filter>
<filter id="filter23_f_1213_1113" x="137.325" y="91.3323" width="117.53" height="29.6768" filterUnits="userSpaceOnUse" color-interpolation-filters="sRGB">
<feFlood flood-opacity="0" result="BackgroundImageFix"/>
<feBlend mode="normal" in="SourceGraphic" in2="BackgroundImageFix" result="shape"/>
<feGaussianBlur stdDeviation="0.5" result="effect1_foregroundBlur_1213_1113"/>
</filter>
<filter id="filter24_ddi_1213_1113" x="137.125" y="92.1321" width="117.93" height="30.0768" filterUnits="userSpaceOnUse" color-interpolation-filters="sRGB">
<feFlood flood-opacity="0" result="BackgroundImageFix"/>
<feColorMatrix in="SourceAlpha" type="matrix" values="0 0 0 0 0 0 0 0 0 0 0 0 0 0 0 0 0 0 127 0" result="hardAlpha"/>
<feOffset dy="0.65"/>
<feGaussianBlur stdDeviation="0.25"/>
<feColorMatrix type="matrix" values="0 0 0 0 0.898039 0 0 0 0 0.411765 0 0 0 0 0.317647 0 0 0 0.01 0"/>
<feBlend mode="multiply" in2="BackgroundImageFix" result="effect1_dropShadow_1213_1113"/>
<feColorMatrix in="SourceAlpha" type="matrix" values="0 0 0 0 0 0 0 0 0 0 0 0 0 0 0 0 0 0 127 0" result="hardAlpha"/>
<feOffset dy="1"/>
<feGaussianBlur stdDeviation="0.65"/>
<feColorMatrix type="matrix" values="0 0 0 0 0.898039 0 0 0 0 0.411765 0 0 0 0 0.317647 0 0 0 1 0"/>
<feBlend mode="color-dodge" in2="effect1_dropShadow_1213_1113" result="effect2_dropShadow_1213_1113"/>
<feBlend mode="normal" in="SourceGraphic" in2="effect2_dropShadow_1213_1113" result="shape"/>
<feColorMatrix in="SourceAlpha" type="matrix" values="0 0 0 0 0 0 0 0 0 0 0 0 0 0 0 0 0 0 127 0" result="hardAlpha"/>
<feOffset dx="-0.065" dy="0.13"/>
<feGaussianBlur stdDeviation="0.0325"/>
<feComposite in2="hardAlpha" operator="arithmetic" k2="-1" k3="1"/>
<feColorMatrix type="matrix" values="0 0 0 0 1 0 0 0 0 1 0 0 0 0 1 0 0 0 0.5 0"/>
<feBlend mode="normal" in2="shape" result="effect3_innerShadow_1213_1113"/>
</filter>
<filter id="filter25_f_1213_1113" x="138.451" y="92.4566" width="115.279" height="27.4273" filterUnits="userSpaceOnUse" color-interpolation-filters="sRGB">
<feFlood flood-opacity="0" result="BackgroundImageFix"/>
<feBlend mode="normal" in="SourceGraphic" in2="BackgroundImageFix" result="shape"/>
<feGaussianBlur stdDeviation="0.05" result="effect1_foregroundBlur_1213_1113"/>
</filter>
<filter id="filter26_f_1213_1113" x="138.584" y="92.5898" width="115.012" height="27.1607" filterUnits="userSpaceOnUse" color-interpolation-filters="sRGB">
<feFlood flood-opacity="0" result="BackgroundImageFix"/>
<feBlend mode="normal" in="SourceGraphic" in2="BackgroundImageFix" result="shape"/>
<feGaussianBlur stdDeviation="0.0333333" result="effect1_foregroundBlur_1213_1113"/>
</filter>
<filter id="filter27_f_1213_1113" x="145.494" y="91.3281" width="100.388" height="27.7244" filterUnits="userSpaceOnUse" color-interpolation-filters="sRGB">
<feFlood flood-opacity="0" result="BackgroundImageFix"/>
<feBlend mode="normal" in="SourceGraphic" in2="BackgroundImageFix" result="shape"/>
<feGaussianBlur stdDeviation="1.5" result="effect1_foregroundBlur_1213_1113"/>
</filter>
<filter id="filter28_f_1213_1113" x="147.394" y="93.2292" width="96.5876" height="23.9233" filterUnits="userSpaceOnUse" color-interpolation-filters="sRGB">
<feFlood flood-opacity="0" result="BackgroundImageFix"/>
<feBlend mode="normal" in="SourceGraphic" in2="BackgroundImageFix" result="shape"/>
<feGaussianBlur stdDeviation="0.5" result="effect1_foregroundBlur_1213_1113"/>
</filter>
<filter id="filter29_ddi_1213_1113" x="147.194" y="94.0281" width="96.9877" height="24.3244" filterUnits="userSpaceOnUse" color-interpolation-filters="sRGB">
<feFlood flood-opacity="0" result="BackgroundImageFix"/>
<feColorMatrix in="SourceAlpha" type="matrix" values="0 0 0 0 0 0 0 0 0 0 0 0 0 0 0 0 0 0 127 0" result="hardAlpha"/>
<feOffset dy="0.65"/>
<feGaussianBlur stdDeviation="0.25"/>
<feColorMatrix type="matrix" values="0 0 0 0 0.898039 0 0 0 0 0.411765 0 0 0 0 0.317647 0 0 0 0.03 0"/>
<feBlend mode="multiply" in2="BackgroundImageFix" result="effect1_dropShadow_1213_1113"/>
<feColorMatrix in="SourceAlpha" type="matrix" values="0 0 0 0 0 0 0 0 0 0 0 0 0 0 0 0 0 0 127 0" result="hardAlpha"/>
<feOffset dy="1"/>
<feGaussianBlur stdDeviation="0.65"/>
<feColorMatrix type="matrix" values="0 0 0 0 0.898039 0 0 0 0 0.411765 0 0 0 0 0.317647 0 0 0 1 0"/>
<feBlend mode="color-dodge" in2="effect1_dropShadow_1213_1113" result="effect2_dropShadow_1213_1113"/>
<feBlend mode="normal" in="SourceGraphic" in2="effect2_dropShadow_1213_1113" result="shape"/>
<feColorMatrix in="SourceAlpha" type="matrix" values="0 0 0 0 0 0 0 0 0 0 0 0 0 0 0 0 0 0 127 0" result="hardAlpha"/>
<feOffset dx="-0.065" dy="0.13"/>
<feGaussianBlur stdDeviation="0.0325"/>
<feComposite in2="hardAlpha" operator="arithmetic" k2="-1" k3="1"/>
<feColorMatrix type="matrix" values="0 0 0 0 1 0 0 0 0 1 0 0 0 0 1 0 0 0 0.5 0"/>
<feBlend mode="normal" in2="shape" result="effect3_innerShadow_1213_1113"/>
</filter>
<filter id="filter30_f_1213_1113" x="148.519" y="94.3519" width="94.3372" height="21.6756" filterUnits="userSpaceOnUse" color-interpolation-filters="sRGB">
<feFlood flood-opacity="0" result="BackgroundImageFix"/>
<feBlend mode="normal" in="SourceGraphic" in2="BackgroundImageFix" result="shape"/>
<feGaussianBlur stdDeviation="0.05" result="effect1_foregroundBlur_1213_1113"/>
</filter>
<filter id="filter31_f_1213_1113" x="148.653" y="94.4844" width="94.0703" height="21.4099" filterUnits="userSpaceOnUse" color-interpolation-filters="sRGB">
<feFlood flood-opacity="0" result="BackgroundImageFix"/>
<feBlend mode="normal" in="SourceGraphic" in2="BackgroundImageFix" result="shape"/>
<feGaussianBlur stdDeviation="0.0333333" result="effect1_foregroundBlur_1213_1113"/>
</filter>
<radialGradient id="paint0_radial_1213_1113" cx="0" cy="0" r="1" gradientUnits="userSpaceOnUse" gradientTransform="translate(196.318 84.5956) rotate(89.7245) scale(41.1097 223.794)">
<stop stop-color="#D951E5" stop-opacity="0"/>
<stop offset="1" stop-color="#E551D6"/>
</radialGradient>
<linearGradient id="paint1_linear_1213_1113" x1="282.279" y1="113.311" x2="96.1301" y2="99.2021" gradientUnits="userSpaceOnUse">
<stop offset="0.453325" stop-color="#23516B"/>
</linearGradient>
<linearGradient id="paint2_linear_1213_1113" x1="290.822" y1="106.947" x2="105.83" y2="93.2099" gradientUnits="userSpaceOnUse">
<stop offset="0.5001" stop-color="#522F59"/>
</linearGradient>
<linearGradient id="paint3_linear_1213_1113" x1="292.548" y1="110.59" x2="107.555" y2="96.867" gradientUnits="userSpaceOnUse">
<stop offset="0.510517" stop-color="#6B4C66"/>
</linearGradient>
<linearGradient id="paint4_linear_1213_1113" x1="279.781" y1="107.054" x2="108.992" y2="100.956" gradientUnits="userSpaceOnUse">
<stop stop-color="#811FFF"/>
<stop offset="0.971702" stop-color="#BDB1A9"/>
</linearGradient>
<linearGradient id="paint5_linear_1213_1113" x1="269.423" y1="108.347" x2="118.679" y2="102.964" gradientUnits="userSpaceOnUse">
<stop stop-color="#811FFF"/>
<stop offset="0.971702" stop-color="#BDB1A9"/>
</linearGradient>
<linearGradient id="paint6_linear_1213_1113" x1="206.992" y1="80.6779" x2="159.826" y2="137.803" gradientUnits="userSpaceOnUse">
<stop offset="0.355949" stop-color="#371D4A"/>
<stop offset="0.723164" stop-color="#693D7E"/>
<stop offset="1" stop-color="#9B6CB1"/>
</linearGradient>
<linearGradient id="paint7_linear_1213_1113" x1="206.992" y1="80.6779" x2="159.826" y2="137.803" gradientUnits="userSpaceOnUse">
<stop offset="0.177373" stop-color="#5A0141"/>
<stop offset="0.723164" stop-color="#76065D"/>
<stop offset="1" stop-color="#99005C"/>
</linearGradient>
<linearGradient id="paint8_linear_1213_1113" x1="178.657" y1="79.1907" x2="231.514" y2="134.327" gradientUnits="userSpaceOnUse">
<stop offset="0.0311237" stop-color="#6E2B95" stop-opacity="0.698809"/>
<stop offset="0.194111" stop-color="#4F1472" stop-opacity="0.782676"/>
<stop offset="0.616457" stop-color="#B55CE9"/>
<stop offset="1" stop-color="#DDA3FF" stop-opacity="0"/>
</linearGradient>
<linearGradient id="paint9_linear_1213_1113" x1="184.99" y1="154.852" x2="220.5" y2="128.54" gradientUnits="userSpaceOnUse">
<stop offset="0.406226" stop-color="#CE7A55"/>
<stop offset="1" stop-color="#F4EEB9"/>
</linearGradient>
<linearGradient id="paint10_linear_1213_1113" x1="197.067" y1="96.2138" x2="195.297" y2="119.231" gradientUnits="userSpaceOnUse">
<stop offset="0.435229" stop-color="#EAB494"/>
<stop offset="1" stop-color="#CE7A55"/>
</linearGradient>
<clipPath id="clip0_1213_1113">
<rect width="382" height="198" fill="white" transform="translate(15.1797) rotate(4.39691)"/>
</clipPath>
</defs>
</svg>
